# MagicaVoxel @ Ephtracy

# group
o 

# material
mtllib river3-4.mtl
usemtl palette

# normals
vn -1 0 0
vn 1 0 0
vn 0 0 1
vn 0 0 -1
vn 0 -1 0
vn 0 1 0

# texcoords
vt 0.685547 0.5
vt 0.716797 0.5
vt 0.748047 0.5
vt 0.814453 0.5
vt 0.818359 0.5
vt 0.833984 0.5
vt 0.849609 0.5
vt 0.865234 0.5
vt 0.880859 0.5

# verts
v 6.5 0 1.7
v 6.5 0 -2.3
v 6.5 0.1 1.7
v 6.5 0.1 0.2
v 6.5 0.1 0
v 6.5 0.2 1.7
v 6.5 0.2 0.2
v 6.5 0.2 0.1
v 6.5 0.2 0
v 6.5 0.2 -2.3
v 6.5 0.3 1.7
v 6.5 0.3 0.4
v 6.5 0.3 0.1
v 6.5 0.4 1.7
v 6.5 0.4 0.4
v 7 0.3 0.4
v 7 0.3 0.3
v 7 0.4 0.4
v 7 0.4 0.3
v 7.3 0.3 0.3
v 7.3 0.3 0.2
v 7.3 0.4 0.3
v 7.3 0.4 0.2
v 7.4 0.3 0.2
v 7.4 0.3 0.1
v 7.4 0.4 0.2
v 7.4 0.4 0.1
v 9.3 0.2 1.5
v 9.3 0.2 1.3
v 9.3 0.3 1.5
v 9.3 0.3 1.3
v 9.4 0.3 1.6
v 9.4 0.3 1.4
v 9.4 0.4 1.6
v 9.4 0.4 1.4
v 10 0.2 1.3
v 10 0.2 1.1
v 10 0.3 1.4
v 10 0.3 1.3
v 10 0.3 1.1
v 10 0.4 1.4
v 10 0.4 1.3
v 10.1 0.2 1.1
v 10.1 0.2 0.5
v 10.1 0.3 1.3
v 10.1 0.3 1.2
v 10.1 0.3 1.1
v 10.1 0.3 0.5
v 10.1 0.4 1.3
v 10.1 0.4 1.2
v 10.2 0.2 0.5
v 10.2 0.2 0.4
v 10.2 0.3 1.2
v 10.2 0.3 0.6
v 10.2 0.3 0.5
v 10.2 0.3 0.4
v 10.2 0.4 1.2
v 10.2 0.4 0.6
v 10.3 0.2 0.4
v 10.3 0.2 0.1
v 10.3 0.3 0.6
v 10.3 0.3 0.5
v 10.3 0.3 0.4
v 10.3 0.3 0.1
v 10.3 0.4 0.6
v 10.3 0.4 0.5
v 10.4 0.2 0.1
v 10.4 0.2 0
v 10.4 0.3 0.5
v 10.4 0.3 0.1
v 10.4 0.3 0
v 10.4 0.4 0.5
v 10.4 0.4 0.1
v 8.1 0.3 0.2
v 8.1 0.3 0.1
v 8.1 0.4 0.2
v 8.1 0.4 0.1
v 8.2 0.2 0.3
v 8.2 0.2 0.1
v 8.2 0.3 0.3
v 8.2 0.3 0.2
v 8.2 0.3 0.1
v 8.2 0.4 0.3
v 8.2 0.4 0.2
v 8.3 0.3 0.4
v 8.3 0.3 0.3
v 8.3 0.4 0.4
v 8.3 0.4 0.3
v 8.4 0.2 0.4
v 8.4 0.2 0.3
v 8.4 0.3 0.5
v 8.4 0.3 0.4
v 8.4 0.3 0.3
v 8.4 0.4 0.5
v 8.4 0.4 0.4
v 8.5 0.3 1.3
v 8.5 0.3 0.5
v 8.5 0.4 1.3
v 8.5 0.4 0.5
v 8.6 0.2 1.2
v 8.6 0.2 0.4
v 8.6 0.3 1.6
v 8.6 0.3 1.3
v 8.6 0.3 1.2
v 8.6 0.3 0.4
v 8.6 0.4 1.6
v 8.6 0.4 1.3
v 8.7 0.2 1.5
v 8.7 0.2 1.4
v 8.7 0.2 1.2
v 8.7 0.3 1.5
v 8.7 0.3 1.2
v 10.5 0 1.7
v 10.5 0 -2.3
v 10.5 0.1 1.7
v 10.5 0.1 1.2
v 10.5 0.1 0
v 10.5 0.1 -0.0999999
v 10.5 0.2 1.7
v 10.5 0.2 1.2
v 10.5 0.2 0
v 10.5 0.2 -0.0999999
v 10.5 0.2 -2.3
v 10.5 0.3 1.7
v 10.5 0.3 0.1
v 10.5 0.3 0
v 10.5 0.4 1.7
v 10.5 0.4 0.1
v 6.5 0 1.7
v 6.5 0.1 1.7
v 6.5 0.2 1.7
v 6.5 0.3 1.7
v 6.5 0.4 1.7
v 8.5 0.1 1.7
v 8.5 0.2 1.7
v 8.6 0.1 1.7
v 8.6 0.2 1.7
v 10.5 0 1.7
v 10.5 0.1 1.7
v 10.5 0.2 1.7
v 10.5 0.3 1.7
v 10.5 0.4 1.7
v 8.6 0.3 1.6
v 8.6 0.4 1.6
v 9.4 0.3 1.6
v 9.4 0.4 1.6
v 8.7 0.2 1.5
v 8.7 0.3 1.5
v 9.3 0.2 1.5
v 9.3 0.3 1.5
v 9.4 0.3 1.4
v 9.4 0.4 1.4
v 10 0.3 1.4
v 10 0.4 1.4
v 8.5 0.3 1.3
v 8.5 0.4 1.3
v 8.6 0.3 1.3
v 8.6 0.4 1.3
v 9.3 0.2 1.3
v 9.3 0.3 1.3
v 9.9 0.2 1.3
v 10 0.2 1.3
v 10 0.3 1.3
v 10 0.4 1.3
v 10.1 0.3 1.3
v 10.1 0.4 1.3
v 8.6 0.2 1.2
v 8.6 0.3 1.2
v 8.7 0.2 1.2
v 8.7 0.3 1.2
v 10.1 0.3 1.2
v 10.1 0.4 1.2
v 10.2 0.3 1.2
v 10.2 0.4 1.2
v 10 0.2 1.1
v 10 0.3 1.1
v 10.1 0.2 1.1
v 10.1 0.3 1.1
v 10.2 0.3 0.6
v 10.2 0.4 0.6
v 10.3 0.3 0.6
v 10.3 0.4 0.6
v 8.4 0.3 0.5
v 8.4 0.4 0.5
v 8.5 0.3 0.5
v 8.5 0.4 0.5
v 10.1 0.2 0.5
v 10.1 0.3 0.5
v 10.2 0.2 0.5
v 10.2 0.3 0.5
v 10.3 0.3 0.5
v 10.3 0.4 0.5
v 10.4 0.3 0.5
v 10.4 0.4 0.5
v 6.5 0.3 0.4
v 6.5 0.4 0.4
v 7 0.3 0.4
v 7 0.4 0.4
v 8.3 0.3 0.4
v 8.3 0.4 0.4
v 8.4 0.2 0.4
v 8.4 0.3 0.4
v 8.4 0.4 0.4
v 8.5 0.2 0.4
v 8.6 0.2 0.4
v 8.6 0.3 0.4
v 10.2 0.2 0.4
v 10.2 0.3 0.4
v 10.3 0.2 0.4
v 10.3 0.3 0.4
v 7 0.3 0.3
v 7 0.4 0.3
v 7.3 0.3 0.3
v 7.3 0.4 0.3
v 8.2 0.2 0.3
v 8.2 0.3 0.3
v 8.2 0.4 0.3
v 8.3 0.3 0.3
v 8.3 0.4 0.3
v 8.4 0.2 0.3
v 8.4 0.3 0.3
v 7.3 0.3 0.2
v 7.3 0.4 0.2
v 7.4 0.3 0.2
v 7.4 0.4 0.2
v 8.1 0.3 0.2
v 8.1 0.4 0.2
v 8.2 0.3 0.2
v 8.2 0.4 0.2
v 6.5 0.2 0.1
v 6.5 0.3 0.1
v 7.4 0.3 0.1
v 7.4 0.4 0.1
v 8 0.2 0.1
v 8.1 0.2 0.1
v 8.1 0.3 0.1
v 8.1 0.4 0.1
v 8.2 0.2 0.1
v 8.2 0.3 0.1
v 10.3 0.2 0.1
v 10.3 0.3 0.1
v 10.4 0.2 0.1
v 10.4 0.3 0.1
v 10.4 0.4 0.1
v 10.5 0.3 0.1
v 10.5 0.4 0.1
v 10.4 0.2 0
v 10.4 0.3 0
v 10.5 0.2 0
v 10.5 0.3 0
v 6.5 0 -2.3
v 6.5 0.2 -2.3
v 10.5 0 -2.3
v 10.5 0.2 -2.3
v 6.5 0 1.7
v 10.5 0 1.7
v 6.5 0 -2.3
v 10.5 0 -2.3
v 8.7 0.2 1.5
v 9.3 0.2 1.5
v 8.7 0.2 1.4
v 8.8 0.2 1.4
v 9.1 0.2 1.4
v 9.2 0.2 1.4
v 9.3 0.2 1.3
v 9.9 0.2 1.3
v 10 0.2 1.3
v 8.6 0.2 1.2
v 8.7 0.2 1.2
v 9.2 0.2 1.2
v 9.3 0.2 1.2
v 9.9 0.2 1.2
v 8.7 0.2 1.1
v 8.8 0.2 1.1
v 10 0.2 1.1
v 10.1 0.2 1.1
v 9.1 0.2 1
v 9.2 0.2 1
v 9.9 0.2 1
v 10 0.2 1
v 9.9 0.2 0.7
v 10 0.2 0.7
v 9.9 0.2 0.6
v 10 0.2 0.6
v 10.1 0.2 0.5
v 10.2 0.2 0.5
v 8.4 0.2 0.4
v 8.5 0.2 0.4
v 8.6 0.2 0.4
v 10 0.2 0.4
v 10.2 0.2 0.4
v 10.3 0.2 0.4
v 8.2 0.2 0.3
v 8.4 0.2 0.3
v 8.5 0.2 0.3
v 8.7 0.2 0.3
v 8.3 0.2 0.2
v 8.4 0.2 0.2
v 8.5 0.2 0.2
v 6.5 0.2 0.1
v 8 0.2 0.1
v 8.1 0.2 0.1
v 8.2 0.2 0.1
v 10.3 0.2 0.1
v 10.4 0.2 0.1
v 6.5 0.2 0
v 8 0.2 0
v 8.1 0.2 0
v 8.2 0.2 0
v 8.3 0.2 0
v 9.4 0.2 0
v 9.5 0.2 0
v 10.2 0.2 0
v 10.3 0.2 0
v 10.4 0.2 0
v 10.5 0.2 0
v 9.4 0.2 -0.0999999
v 9.5 0.2 -0.0999999
v 10.2 0.2 -0.0999999
v 10.3 0.2 -0.0999999
v 10.5 0.2 -0.0999999
v 9.8 0.2 -1.4
v 9.9 0.2 -1.4
v 9.8 0.2 -1.5
v 9.9 0.2 -1.5
v 6.5 0.2 -2.3
v 10.5 0.2 -2.3
v 8.6 0.3 1.6
v 9.4 0.3 1.6
v 8.7 0.3 1.5
v 9.3 0.3 1.5
v 9.4 0.3 1.4
v 10 0.3 1.4
v 8.5 0.3 1.3
v 8.6 0.3 1.3
v 9.3 0.3 1.3
v 10 0.3 1.3
v 10.1 0.3 1.3
v 8.6 0.3 1.2
v 8.7 0.3 1.2
v 10.1 0.3 1.2
v 10.2 0.3 1.2
v 10 0.3 1.1
v 10.1 0.3 1.1
v 10.2 0.3 0.6
v 10.3 0.3 0.6
v 8.4 0.3 0.5
v 8.5 0.3 0.5
v 10.1 0.3 0.5
v 10.2 0.3 0.5
v 10.3 0.3 0.5
v 10.4 0.3 0.5
v 6.5 0.3 0.4
v 7 0.3 0.4
v 8.3 0.3 0.4
v 8.4 0.3 0.4
v 8.6 0.3 0.4
v 10.2 0.3 0.4
v 10.3 0.3 0.4
v 7 0.3 0.3
v 7.3 0.3 0.3
v 8.3 0.3 0.3
v 8.4 0.3 0.3
v 7.3 0.3 0.2
v 7.4 0.3 0.2
v 8.1 0.3 0.2
v 8.2 0.3 0.2
v 6.5 0.3 0.1
v 7.4 0.3 0.1
v 8.1 0.3 0.1
v 8.2 0.3 0.1
v 10.3 0.3 0.1
v 10.4 0.3 0.1
v 10.5 0.3 0.1
v 10.4 0.3 0
v 10.5 0.3 0
v 6.5 0.4 1.7
v 10.5 0.4 1.7
v 8.6 0.4 1.6
v 9.4 0.4 1.6
v 9.4 0.4 1.4
v 10 0.4 1.4
v 8.5 0.4 1.3
v 8.6 0.4 1.3
v 10 0.4 1.3
v 10.1 0.4 1.3
v 10.1 0.4 1.2
v 10.2 0.4 1.2
v 10.2 0.4 0.6
v 10.3 0.4 0.6
v 8.4 0.4 0.5
v 8.5 0.4 0.5
v 10.3 0.4 0.5
v 10.4 0.4 0.5
v 6.5 0.4 0.4
v 7 0.4 0.4
v 8.3 0.4 0.4
v 8.4 0.4 0.4
v 7 0.4 0.3
v 7.3 0.4 0.3
v 8.1 0.4 0.3
v 8.2 0.4 0.3
v 8.3 0.4 0.3
v 7.3 0.4 0.2
v 7.4 0.4 0.2
v 8.1 0.4 0.2
v 8.2 0.4 0.2
v 7.4 0.4 0.1
v 8.1 0.4 0.1
v 10.4 0.4 0.1
v 10.5 0.4 0.1

# faces
f 3/9/1 2/9/1 1/9/1
f 4/9/1 2/9/1 3/9/1
f 5/9/1 2/9/1 4/9/1
f 6/2/1 4/2/1 3/2/1
f 7/3/1 5/3/1 4/3/1
f 7/2/1 4/2/1 6/2/1
f 8/3/1 5/3/1 7/3/1
f 9/9/1 2/9/1 5/9/1
f 9/3/1 5/3/1 8/3/1
f 10/9/1 2/9/1 9/9/1
f 11/4/1 8/4/1 7/4/1
f 11/4/1 7/4/1 6/4/1
f 12/4/1 8/4/1 11/4/1
f 13/4/1 8/4/1 12/4/1
f 14/6/1 12/6/1 11/6/1
f 15/6/1 12/6/1 14/6/1
f 18/6/1 17/6/1 16/6/1
f 19/6/1 17/6/1 18/6/1
f 22/6/1 21/6/1 20/6/1
f 23/6/1 21/6/1 22/6/1
f 26/6/1 25/6/1 24/6/1
f 27/6/1 25/6/1 26/6/1
f 30/4/1 29/4/1 28/4/1
f 31/4/1 29/4/1 30/4/1
f 34/6/1 33/6/1 32/6/1
f 35/6/1 33/6/1 34/6/1
f 39/4/1 37/4/1 36/4/1
f 40/4/1 37/4/1 39/4/1
f 41/6/1 39/6/1 38/6/1
f 42/6/1 39/6/1 41/6/1
f 47/4/1 44/4/1 43/4/1
f 48/4/1 44/4/1 47/4/1
f 49/6/1 46/6/1 45/6/1
f 50/6/1 46/6/1 49/6/1
f 55/4/1 52/4/1 51/4/1
f 56/4/1 52/4/1 55/4/1
f 57/6/1 54/6/1 53/6/1
f 58/6/1 54/6/1 57/6/1
f 63/4/1 60/4/1 59/4/1
f 64/4/1 60/4/1 63/4/1
f 65/6/1 62/6/1 61/6/1
f 66/6/1 62/6/1 65/6/1
f 70/4/1 68/4/1 67/4/1
f 71/4/1 68/4/1 70/4/1
f 72/6/1 70/6/1 69/6/1
f 73/6/1 70/6/1 72/6/1
f 74/6/2 75/6/2 76/6/2
f 76/6/2 75/6/2 77/6/2
f 78/4/2 79/4/2 80/4/2
f 80/4/2 79/4/2 81/4/2
f 81/4/2 79/4/2 82/4/2
f 80/8/2 81/8/2 83/8/2
f 83/8/2 81/8/2 84/8/2
f 85/6/2 86/6/2 87/6/2
f 87/6/2 86/6/2 88/6/2
f 89/4/2 90/4/2 92/4/2
f 92/4/2 90/4/2 93/4/2
f 91/6/2 92/6/2 94/6/2
f 94/6/2 92/6/2 95/6/2
f 96/6/2 97/6/2 98/6/2
f 98/6/2 97/6/2 99/6/2
f 100/4/2 101/4/2 104/4/2
f 104/4/2 101/4/2 105/4/2
f 102/6/2 103/6/2 106/6/2
f 106/6/2 103/6/2 107/6/2
f 108/4/2 109/4/2 111/4/2
f 109/4/2 110/4/2 111/4/2
f 111/4/2 110/4/2 112/4/2
f 113/9/2 114/9/2 115/9/2
f 115/9/2 114/9/2 116/9/2
f 116/9/2 114/9/2 117/9/2
f 117/9/2 114/9/2 118/9/2
f 115/2/2 116/2/2 119/2/2
f 116/9/2 117/9/2 120/9/2
f 119/2/2 116/2/2 120/2/2
f 117/3/2 118/3/2 121/3/2
f 120/9/2 117/9/2 121/9/2
f 118/9/2 114/9/2 122/9/2
f 121/3/2 118/3/2 122/3/2
f 122/9/2 114/9/2 123/9/2
f 120/4/2 121/4/2 124/4/2
f 119/4/2 120/4/2 124/4/2
f 124/4/2 121/4/2 125/4/2
f 125/4/2 121/4/2 126/4/2
f 124/6/2 125/6/2 127/6/2
f 127/6/2 125/6/2 128/6/2
f 134/9/3 130/9/3 129/9/3
f 134/2/3 131/2/3 130/2/3
f 135/4/3 132/4/3 131/4/3
f 135/2/3 131/2/3 134/2/3
f 136/9/3 134/9/3 129/9/3
f 136/1/3 135/1/3 134/1/3
f 137/4/3 132/4/3 135/4/3
f 137/1/3 135/1/3 136/1/3
f 138/9/3 136/9/3 129/9/3
f 139/2/3 137/2/3 136/2/3
f 139/9/3 136/9/3 138/9/3
f 140/4/3 132/4/3 137/4/3
f 140/2/3 137/2/3 139/2/3
f 141/6/3 133/6/3 132/6/3
f 141/4/3 132/4/3 140/4/3
f 142/6/3 133/6/3 141/6/3
f 143/6/4 144/6/4 145/6/4
f 145/6/4 144/6/4 146/6/4
f 147/4/4 148/4/4 149/4/4
f 149/4/4 148/4/4 150/4/4
f 151/6/4 152/6/4 153/6/4
f 153/6/4 152/6/4 154/6/4
f 155/6/4 156/6/4 157/6/4
f 157/6/4 156/6/4 158/6/4
f 159/4/4 160/4/4 161/4/4
f 161/4/4 160/4/4 162/4/4
f 162/4/4 160/4/4 163/4/4
f 163/6/4 164/6/4 165/6/4
f 165/6/4 164/6/4 166/6/4
f 167/4/4 168/4/4 169/4/4
f 169/4/4 168/4/4 170/4/4
f 171/6/4 172/6/4 173/6/4
f 173/6/4 172/6/4 174/6/4
f 175/4/4 176/4/4 177/4/4
f 177/4/4 176/4/4 178/4/4
f 179/6/4 180/6/4 181/6/4
f 181/6/4 180/6/4 182/6/4
f 183/6/4 184/6/4 185/6/4
f 185/6/4 184/6/4 186/6/4
f 187/4/4 188/4/4 189/4/4
f 189/4/4 188/4/4 190/4/4
f 191/6/4 192/6/4 193/6/4
f 193/6/4 192/6/4 194/6/4
f 195/6/4 196/6/4 197/6/4
f 197/6/4 196/6/4 198/6/4
f 199/6/4 200/6/4 202/6/4
f 202/6/4 200/6/4 203/6/4
f 201/4/4 202/4/4 204/4/4
f 204/4/4 202/4/4 205/4/4
f 205/4/4 202/4/4 206/4/4
f 207/4/4 208/4/4 209/4/4
f 209/4/4 208/4/4 210/4/4
f 211/6/4 212/6/4 213/6/4
f 213/6/4 212/6/4 214/6/4
f 215/4/4 216/4/4 218/4/4
f 216/6/4 217/6/4 218/6/4
f 218/6/4 217/6/4 219/6/4
f 215/4/4 218/4/4 220/4/4
f 220/4/4 218/4/4 221/4/4
f 222/6/4 223/6/4 224/6/4
f 224/6/4 223/6/4 225/6/4
f 226/8/4 227/8/4 228/8/4
f 228/8/4 227/8/4 229/8/4
f 230/4/4 231/4/4 232/4/4
f 230/4/4 232/4/4 234/4/4
f 234/4/4 232/4/4 235/4/4
f 232/6/4 233/6/4 236/6/4
f 235/4/4 232/4/4 236/4/4
f 236/6/4 233/6/4 237/6/4
f 235/4/4 236/4/4 238/4/4
f 238/4/4 236/4/4 239/4/4
f 240/4/4 241/4/4 242/4/4
f 242/4/4 241/4/4 243/4/4
f 243/6/4 244/6/4 245/6/4
f 245/6/4 244/6/4 246/6/4
f 247/4/4 248/4/4 249/4/4
f 249/4/4 248/4/4 250/4/4
f 251/9/4 252/9/4 253/9/4
f 253/9/4 252/9/4 254/9/4
f 257/9/5 256/9/5 255/9/5
f 258/9/5 256/9/5 257/9/5
f 259/3/6 260/3/6 261/3/6
f 261/3/6 260/3/6 262/3/6
f 262/3/6 260/3/6 263/3/6
f 263/3/6 260/3/6 264/3/6
f 264/3/6 260/3/6 265/3/6
f 261/2/6 262/2/6 269/2/6
f 263/7/6 264/7/6 270/7/6
f 264/3/6 265/3/6 270/3/6
f 265/2/6 266/2/6 271/2/6
f 270/3/6 265/3/6 271/3/6
f 266/3/6 267/3/6 272/3/6
f 271/2/6 266/2/6 272/2/6
f 268/2/6 269/2/6 273/2/6
f 269/2/6 262/2/6 273/2/6
f 262/9/6 263/9/6 274/9/6
f 273/2/6 262/2/6 274/2/6
f 272/3/6 267/3/6 275/3/6
f 274/9/6 263/9/6 277/9/6
f 263/7/6 270/7/6 277/7/6
f 273/9/6 274/9/6 277/9/6
f 270/9/6 271/9/6 278/9/6
f 277/7/6 270/7/6 278/7/6
f 271/9/6 272/9/6 278/9/6
f 275/3/6 276/3/6 279/3/6
f 278/9/6 272/9/6 279/9/6
f 272/3/6 275/3/6 279/3/6
f 279/3/6 276/3/6 280/3/6
f 277/9/6 278/9/6 281/9/6
f 278/9/6 279/9/6 281/9/6
f 279/9/6 280/9/6 281/9/6
f 280/3/6 276/3/6 282/3/6
f 281/9/6 280/9/6 282/9/6
f 277/9/6 281/9/6 283/9/6
f 281/7/6 282/7/6 283/7/6
f 282/3/6 276/3/6 284/3/6
f 283/7/6 282/7/6 284/7/6
f 284/3/6 276/3/6 285/3/6
f 268/2/6 273/2/6 289/2/6
f 283/9/6 284/9/6 290/9/6
f 284/3/6 285/3/6 290/3/6
f 285/3/6 286/3/6 290/3/6
f 290/3/6 286/3/6 291/3/6
f 287/3/6 288/3/6 294/3/6
f 288/2/6 289/2/6 295/2/6
f 294/3/6 288/3/6 295/3/6
f 273/9/6 277/9/6 296/9/6
f 295/2/6 289/2/6 296/2/6
f 277/9/6 283/9/6 296/9/6
f 289/2/6 273/2/6 296/2/6
f 290/9/6 291/9/6 296/9/6
f 283/9/6 290/9/6 296/9/6
f 293/2/6 294/2/6 297/2/6
f 294/7/6 295/7/6 298/7/6
f 297/2/6 294/2/6 298/2/6
f 295/9/6 296/9/6 299/9/6
f 298/7/6 295/7/6 299/7/6
f 293/2/6 297/2/6 303/2/6
f 291/3/6 292/3/6 304/3/6
f 300/3/6 301/3/6 306/3/6
f 301/2/6 302/2/6 307/2/6
f 306/3/6 301/3/6 307/3/6
f 302/3/6 303/3/6 308/3/6
f 307/2/6 302/2/6 308/2/6
f 303/2/6 297/2/6 309/2/6
f 308/3/6 303/3/6 309/3/6
f 297/9/6 298/9/6 310/9/6
f 309/2/6 297/2/6 310/2/6
f 298/9/6 299/9/6 310/9/6
f 296/9/6 291/9/6 311/9/6
f 310/9/6 299/9/6 311/9/6
f 299/9/6 296/9/6 311/9/6
f 311/9/6 291/9/6 312/9/6
f 291/3/6 304/3/6 313/3/6
f 312/9/6 291/9/6 313/9/6
f 304/3/6 305/3/6 313/3/6
f 313/3/6 305/3/6 314/3/6
f 314/3/6 305/3/6 315/3/6
f 306/9/6 307/9/6 317/9/6
f 309/9/6 310/9/6 317/9/6
f 308/9/6 309/9/6 317/9/6
f 311/7/6 312/7/6 317/7/6
f 307/9/6 308/9/6 317/9/6
f 310/9/6 311/9/6 317/9/6
f 312/9/6 313/9/6 318/9/6
f 317/7/6 312/7/6 318/7/6
f 313/7/6 314/7/6 319/7/6
f 318/9/6 313/9/6 319/9/6
f 315/3/6 316/3/6 320/3/6
f 319/7/6 314/7/6 320/7/6
f 314/3/6 315/3/6 320/3/6
f 320/3/6 316/3/6 321/3/6
f 318/9/6 319/9/6 322/9/6
f 317/9/6 318/9/6 322/9/6
f 320/9/6 321/9/6 322/9/6
f 319/9/6 320/9/6 322/9/6
f 322/9/6 321/9/6 323/9/6
f 317/9/6 322/9/6 324/9/6
f 322/5/6 323/5/6 324/5/6
f 323/9/6 321/9/6 325/9/6
f 324/5/6 323/5/6 325/5/6
f 306/9/6 317/9/6 326/9/6
f 317/9/6 324/9/6 326/9/6
f 324/9/6 325/9/6 326/9/6
f 325/9/6 321/9/6 327/9/6
f 326/9/6 325/9/6 327/9/6
f 328/4/6 329/4/6 330/4/6
f 330/4/6 329/4/6 331/4/6
f 331/4/6 329/4/6 332/4/6
f 328/4/6 330/4/6 335/4/6
f 332/4/6 333/4/6 336/4/6
f 331/4/6 332/4/6 336/4/6
f 336/4/6 333/4/6 337/4/6
f 334/4/6 335/4/6 339/4/6
f 335/4/6 330/4/6 339/4/6
f 339/4/6 330/4/6 340/4/6
f 337/4/6 338/4/6 341/4/6
f 341/4/6 342/4/6 343/4/6
f 337/4/6 341/4/6 343/4/6
f 343/4/6 342/4/6 344/4/6
f 344/4/6 342/4/6 345/4/6
f 334/4/6 339/4/6 348/4/6
f 345/4/6 346/4/6 349/4/6
f 344/4/6 345/4/6 349/4/6
f 349/4/6 346/4/6 350/4/6
f 350/4/6 346/4/6 351/4/6
f 347/4/6 348/4/6 356/4/6
f 348/4/6 339/4/6 357/4/6
f 356/4/6 348/4/6 357/4/6
f 351/4/6 352/4/6 358/4/6
f 350/4/6 351/4/6 358/4/6
f 358/4/6 352/4/6 359/4/6
f 353/4/6 354/4/6 360/4/6
f 355/4/6 356/4/6 362/4/6
f 362/4/6 356/4/6 363/4/6
f 360/4/6 361/4/6 364/4/6
f 353/4/6 360/4/6 368/4/6
f 360/4/6 364/4/6 368/4/6
f 364/4/6 365/4/6 368/4/6
f 368/4/6 365/4/6 369/4/6
f 366/4/6 367/4/6 370/4/6
f 370/4/6 367/4/6 371/4/6
f 359/4/6 352/4/6 372/4/6
f 372/4/6 352/4/6 373/4/6
f 373/4/6 374/4/6 375/4/6
f 375/4/6 374/4/6 376/4/6
f 377/6/6 378/6/6 379/6/6
f 379/6/6 378/6/6 380/6/6
f 380/6/6 378/6/6 381/6/6
f 381/6/6 378/6/6 382/6/6
f 377/6/6 379/6/6 383/6/6
f 383/6/6 379/6/6 384/6/6
f 382/6/6 378/6/6 385/6/6
f 385/6/6 378/6/6 386/6/6
f 386/6/6 378/6/6 387/6/6
f 387/6/6 378/6/6 388/6/6
f 388/6/6 378/6/6 389/6/6
f 389/6/6 378/6/6 390/6/6
f 377/6/6 383/6/6 391/6/6
f 391/6/6 383/6/6 392/6/6
f 390/6/6 378/6/6 393/6/6
f 393/6/6 378/6/6 394/6/6
f 377/6/6 391/6/6 395/6/6
f 395/6/6 391/6/6 396/6/6
f 396/6/6 391/6/6 397/6/6
f 397/6/6 391/6/6 398/6/6
f 396/6/6 397/6/6 399/6/6
f 399/6/6 397/6/6 400/6/6
f 400/6/6 397/6/6 401/6/6
f 401/6/6 397/6/6 402/6/6
f 402/6/6 397/6/6 403/6/6
f 400/6/6 401/6/6 404/6/6
f 404/6/6 401/6/6 405/6/6
f 401/8/6 402/8/6 406/8/6
f 405/6/6 401/6/6 406/6/6
f 406/8/6 402/8/6 407/8/6
f 405/6/6 406/6/6 408/6/6
f 408/6/6 406/6/6 409/6/6
f 394/6/6 378/6/6 410/6/6
f 410/6/6 378/6/6 411/6/6
