# MagicaVoxel @ Ephtracy

# group
o 

# material
mtllib river-1.mtl
usemtl palette

# normals
vn -1 0 0
vn 1 0 0
vn 0 0 1
vn 0 0 -1
vn 0 -1 0
vn 0 1 0

# texcoords
vt 0.716797 0.5
vt 0.814453 0.5
vt 0.818359 0.5
vt 0.833984 0.5
vt 0.865234 0.5
vt 0.880859 0.5

# verts
v -2 0 2
v -2 0 1.9
v -2 0 -1.9
v -2 0 -2
v -2 0.1 1.9
v -2 0.1 1.3
v -2 0.1 -1.2
v -2 0.1 -1.9
v -2 0.2 2
v -2 0.2 1.3
v -2 0.2 -1.2
v -2 0.2 -1.3
v -2 0.2 -2
v -2 0.3 2
v -2 0.3 1.4
v -2 0.3 1.3
v -2 0.3 -1.3
v -2 0.3 -1.4
v -2 0.3 -2
v -2 0.4 2
v -2 0.4 1.4
v -2 0.4 -1.4
v -2 0.4 -2
v -1.6 0.2 1.3
v -1.6 0.2 1.1
v -1.6 0.3 1.3
v -1.6 0.3 1.1
v -1.5 0.2 1.1
v -1.5 0.2 1
v -1.5 0.3 1.4
v -1.5 0.3 1.1
v -1.5 0.3 1
v -1.5 0.4 1.4
v -1.5 0.4 1.1
v -1.2 0.2 1
v -1.2 0.2 0.9
v -1.2 0.2 0.8
v -1.2 0.3 1.1
v -1.2 0.3 1
v -1.2 0.3 0.8
v -1.2 0.4 1.1
v -1.2 0.4 1
v -1.1 0.2 0.8
v -1.1 0.2 0.7
v -1.1 0.3 1
v -1.1 0.3 0.9
v -1.1 0.3 0.8
v -1.1 0.3 0.7
v -1.1 0.4 1
v -1.1 0.4 0.9
v -0.8 0.2 0.7
v -0.8 0.2 0.5
v -0.8 0.3 0.9
v -0.8 0.3 0.8
v -0.8 0.3 0.7
v -0.8 0.3 0.5
v -0.8 0.4 0.9
v -0.8 0.4 0.8
v -0.7 0.3 0.8
v -0.7 0.3 0.6
v -0.7 0.4 0.8
v -0.7 0.4 0.6
v -0.6 0.2 0.5
v -0.6 0.2 0.4
v -0.6 0.3 0.5
v -0.6 0.3 0.4
v -0.5 0.3 0.6
v -0.5 0.3 0.5
v -0.5 0.4 0.6
v -0.5 0.4 0.5
v 0.7 0.3 0.7
v 0.7 0.3 0.5
v 0.7 0.4 0.7
v 0.7 0.4 0.5
v 0.8 0.2 0.6
v 0.8 0.2 0.4
v 0.8 0.3 0.6
v 0.8 0.3 0.4
v 2 0 2
v 2 0 1.9
v 2 0 0.5
v 2 0 0.4
v 2 0 -1.9
v 2 0 -2
v 2 0.1 1.9
v 2 0.1 0.6
v 2 0.1 0.5
v 2 0.1 0.4
v 2 0.1 -1.2
v 2 0.1 -1.9
v 2 0.2 2
v 2 0.2 0.6
v 2 0.2 0.4
v 2 0.2 -1.2
v 2 0.2 -1.3
v 2 0.2 -2
v 2 0.3 2
v 2 0.3 0.7
v 2 0.3 0.6
v 2 0.3 -1.3
v 2 0.3 -1.4
v 2 0.3 -2
v 2 0.4 2
v 2 0.4 0.7
v 2 0.4 -1.4
v 2 0.4 -2
v -2 0 2
v -2 0.2 2
v -2 0.3 2
v -2 0.4 2
v 2 0 2
v 2 0.2 2
v 2 0.3 2
v 2 0.4 2
v -2 0.2 -1.3
v -2 0.3 -1.3
v 2 0.2 -1.3
v 2 0.3 -1.3
v -2 0.3 -1.4
v -2 0.4 -1.4
v 1.2 0.3 -1.4
v 1.2 0.4 -1.4
v 1.3 0.3 -1.4
v 1.3 0.4 -1.4
v 2 0.3 -1.4
v 2 0.4 -1.4
v -2 0.3 1.4
v -2 0.4 1.4
v -1.5 0.3 1.4
v -1.5 0.4 1.4
v -2 0.2 1.3
v -2 0.3 1.3
v -1.9 0.2 1.3
v -1.6 0.2 1.3
v -1.6 0.3 1.3
v -1.6 0.2 1.1
v -1.6 0.3 1.1
v -1.5 0.2 1.1
v -1.5 0.3 1.1
v -1.5 0.4 1.1
v -1.2 0.3 1.1
v -1.2 0.4 1.1
v -1.5 0.2 1
v -1.5 0.3 1
v -1.2 0.2 1
v -1.2 0.3 1
v -1.2 0.4 1
v -1.1 0.3 1
v -1.1 0.4 1
v -1.1 0.3 0.9
v -1.1 0.4 0.9
v -0.8 0.3 0.9
v -0.8 0.4 0.9
v -1.2 0.2 0.8
v -1.2 0.3 0.8
v -1.1 0.2 0.8
v -1.1 0.3 0.8
v -0.8 0.3 0.8
v -0.8 0.4 0.8
v -0.7 0.3 0.8
v -0.7 0.4 0.8
v -1.1 0.2 0.7
v -1.1 0.3 0.7
v -1 0.2 0.7
v -0.8 0.2 0.7
v -0.8 0.3 0.7
v 0.7 0.3 0.7
v 0.7 0.4 0.7
v 2 0.3 0.7
v 2 0.4 0.7
v -0.7 0.3 0.6
v -0.7 0.4 0.6
v -0.5 0.3 0.6
v -0.5 0.4 0.6
v 0.8 0.2 0.6
v 0.8 0.3 0.6
v 1.9 0.2 0.6
v 2 0.2 0.6
v 2 0.3 0.6
v -0.8 0.2 0.5
v -0.8 0.3 0.5
v -0.6 0.2 0.5
v -0.6 0.3 0.5
v -0.5 0.3 0.5
v -0.5 0.4 0.5
v 0.7 0.3 0.5
v 0.7 0.4 0.5
v -0.6 0.2 0.4
v -0.6 0.3 0.4
v -0.5 0.2 0.4
v 0.8 0.2 0.4
v 0.8 0.3 0.4
v -2 0 -2
v -2 0.2 -2
v -2 0.3 -2
v -2 0.4 -2
v 2 0 -2
v 2 0.2 -2
v 2 0.3 -2
v 2 0.4 -2
v -2 0 2
v 2 0 2
v -2 0 1.9
v 2 0 1.9
v -1 0 0.5
v -0.9 0 0.5
v 1.9 0 0.5
v 2 0 0.5
v -1 0 0.4
v -0.9 0 0.4
v 1.9 0 0.4
v 2 0 0.4
v -2 0 -1.9
v 2 0 -1.9
v -2 0 -2
v 2 0 -2
v -2 0.2 1.3
v -1.9 0.2 1.3
v -1.6 0.2 1.3
v -1.9 0.2 1.2
v -1.7 0.2 1.2
v -1.7 0.2 1.1
v -1.6 0.2 1.1
v -1.5 0.2 1.1
v -1.6 0.2 1
v -1.5 0.2 1
v -1.2 0.2 1
v -1.5 0.2 0.9
v -1.2 0.2 0.9
v -1.2 0.2 0.8
v -1.1 0.2 0.8
v -1.2 0.2 0.7
v -1.1 0.2 0.7
v -1 0.2 0.7
v -0.8 0.2 0.7
v -1 0.2 0.6
v -0.9 0.2 0.6
v 0.8 0.2 0.6
v 1.9 0.2 0.6
v 2 0.2 0.6
v -0.9 0.2 0.5
v -0.8 0.2 0.5
v -0.6 0.2 0.5
v 0.9 0.2 0.5
v 1.9 0.2 0.5
v -0.6 0.2 0.4
v -0.5 0.2 0.4
v 0.8 0.2 0.4
v 1.9 0.2 0.4
v 2 0.2 0.4
v -0.5 0.2 0.3
v 0.9 0.2 0.3
v 1.3 0.2 -1.1
v 1.4 0.2 -1.1
v -2 0.2 -1.2
v 1.3 0.2 -1.2
v 1.4 0.2 -1.2
v 2 0.2 -1.2
v -2 0.2 -1.3
v 2 0.2 -1.3
v -2 0.3 1.4
v -1.5 0.3 1.4
v -2 0.3 1.3
v -1.6 0.3 1.3
v -1.6 0.3 1.1
v -1.5 0.3 1.1
v -1.2 0.3 1.1
v -1.5 0.3 1
v -1.2 0.3 1
v -1.1 0.3 1
v -1.1 0.3 0.9
v -0.8 0.3 0.9
v -1.2 0.3 0.8
v -1.1 0.3 0.8
v -0.8 0.3 0.8
v -0.7 0.3 0.8
v -1.1 0.3 0.7
v -0.8 0.3 0.7
v 0.7 0.3 0.7
v 2 0.3 0.7
v -0.7 0.3 0.6
v -0.5 0.3 0.6
v 0.8 0.3 0.6
v 2 0.3 0.6
v -0.8 0.3 0.5
v -0.6 0.3 0.5
v -0.5 0.3 0.5
v 0.7 0.3 0.5
v -0.6 0.3 0.4
v 0.8 0.3 0.4
v -2 0.3 -1.3
v 2 0.3 -1.3
v -2 0.3 -1.4
v 1.2 0.3 -1.4
v 1.3 0.3 -1.4
v 2 0.3 -1.4
v -2 0.4 2
v 2 0.4 2
v -2 0.4 1.4
v -1.5 0.4 1.4
v -1.5 0.4 1.1
v -1.2 0.4 1.1
v -1.2 0.4 1
v -1.1 0.4 1
v -1.1 0.4 0.9
v -0.8 0.4 0.9
v -0.8 0.4 0.8
v -0.7 0.4 0.8
v 0.7 0.4 0.7
v 2 0.4 0.7
v -0.7 0.4 0.6
v -0.5 0.4 0.6
v -0.5 0.4 0.5
v 0.7 0.4 0.5
v -2 0.4 -1.4
v 1.2 0.4 -1.4
v 1.3 0.4 -1.4
v 2 0.4 -1.4
v 1.2 0.4 -1.5
v 1.3 0.4 -1.5
v -2 0.4 -2
v 2 0.4 -2

# faces
f 5/1/1 2/1/1 1/1/1
f 5/3/1 3/3/1 2/3/1
f 6/3/1 3/3/1 5/3/1
f 7/3/1 3/3/1 6/3/1
f 8/1/1 4/1/1 3/1/1
f 8/3/1 3/3/1 7/3/1
f 9/1/1 5/1/1 1/1/1
f 9/1/1 6/1/1 5/1/1
f 10/6/1 7/6/1 6/6/1
f 10/1/1 6/1/1 9/1/1
f 11/1/1 8/1/1 7/1/1
f 11/6/1 7/6/1 10/6/1
f 12/1/1 8/1/1 11/1/1
f 13/1/1 4/1/1 8/1/1
f 13/1/1 8/1/1 12/1/1
f 14/2/1 10/2/1 9/2/1
f 15/2/1 10/2/1 14/2/1
f 16/2/1 10/2/1 15/2/1
f 17/2/1 13/2/1 12/2/1
f 18/2/1 13/2/1 17/2/1
f 19/2/1 13/2/1 18/2/1
f 20/4/1 15/4/1 14/4/1
f 21/4/1 15/4/1 20/4/1
f 22/4/1 19/4/1 18/4/1
f 23/4/1 19/4/1 22/4/1
f 26/2/1 25/2/1 24/2/1
f 27/2/1 25/2/1 26/2/1
f 31/2/1 29/2/1 28/2/1
f 32/2/1 29/2/1 31/2/1
f 33/4/1 31/4/1 30/4/1
f 34/4/1 31/4/1 33/4/1
f 39/2/1 36/2/1 35/2/1
f 39/2/1 37/2/1 36/2/1
f 40/2/1 37/2/1 39/2/1
f 41/4/1 39/4/1 38/4/1
f 42/4/1 39/4/1 41/4/1
f 47/2/1 44/2/1 43/2/1
f 48/2/1 44/2/1 47/2/1
f 49/4/1 46/4/1 45/4/1
f 50/4/1 46/4/1 49/4/1
f 55/2/1 52/2/1 51/2/1
f 56/2/1 52/2/1 55/2/1
f 57/4/1 54/4/1 53/4/1
f 58/4/1 54/4/1 57/4/1
f 61/4/1 60/4/1 59/4/1
f 62/4/1 60/4/1 61/4/1
f 65/2/1 64/2/1 63/2/1
f 66/2/1 64/2/1 65/2/1
f 69/4/1 68/4/1 67/4/1
f 70/4/1 68/4/1 69/4/1
f 71/4/2 72/4/2 73/4/2
f 73/4/2 72/4/2 74/4/2
f 75/2/2 76/2/2 77/2/2
f 77/2/2 76/2/2 78/2/2
f 79/1/2 80/1/2 85/1/2
f 80/3/2 81/3/2 85/3/2
f 85/3/2 81/3/2 86/3/2
f 81/6/2 82/6/2 87/6/2
f 86/3/2 81/3/2 87/3/2
f 82/3/2 83/3/2 88/3/2
f 87/6/2 82/6/2 88/6/2
f 88/3/2 83/3/2 89/3/2
f 83/1/2 84/1/2 90/1/2
f 89/3/2 83/3/2 90/3/2
f 85/1/2 86/1/2 91/1/2
f 79/1/2 85/1/2 91/1/2
f 86/3/2 87/3/2 92/3/2
f 91/1/2 86/1/2 92/1/2
f 87/3/2 88/3/2 92/3/2
f 88/6/2 89/6/2 93/6/2
f 92/3/2 88/3/2 93/3/2
f 89/1/2 90/1/2 94/1/2
f 93/6/2 89/6/2 94/6/2
f 94/1/2 90/1/2 95/1/2
f 90/1/2 84/1/2 96/1/2
f 95/1/2 90/1/2 96/1/2
f 91/2/2 92/2/2 97/2/2
f 97/2/2 92/2/2 98/2/2
f 98/2/2 92/2/2 99/2/2
f 95/2/2 96/2/2 100/2/2
f 100/2/2 96/2/2 101/2/2
f 101/2/2 96/2/2 102/2/2
f 97/4/2 98/4/2 103/4/2
f 103/4/2 98/4/2 104/4/2
f 101/4/2 102/4/2 105/4/2
f 105/4/2 102/4/2 106/4/2
f 111/1/3 108/1/3 107/1/3
f 112/2/3 109/2/3 108/2/3
f 112/1/3 108/1/3 111/1/3
f 113/4/3 110/4/3 109/4/3
f 113/2/3 109/2/3 112/2/3
f 114/4/3 110/4/3 113/4/3
f 117/2/3 116/2/3 115/2/3
f 118/2/3 116/2/3 117/2/3
f 121/4/3 120/4/3 119/4/3
f 122/4/3 120/4/3 121/4/3
f 123/5/3 122/5/3 121/5/3
f 124/5/3 122/5/3 123/5/3
f 125/4/3 124/4/3 123/4/3
f 126/4/3 124/4/3 125/4/3
f 127/4/4 128/4/4 129/4/4
f 129/4/4 128/4/4 130/4/4
f 131/2/4 132/2/4 133/2/4
f 133/2/4 132/2/4 134/2/4
f 134/2/4 132/2/4 135/2/4
f 136/2/4 137/2/4 138/2/4
f 138/2/4 137/2/4 139/2/4
f 139/4/4 140/4/4 141/4/4
f 141/4/4 140/4/4 142/4/4
f 143/2/4 144/2/4 145/2/4
f 145/2/4 144/2/4 146/2/4
f 146/4/4 147/4/4 148/4/4
f 148/4/4 147/4/4 149/4/4
f 150/4/4 151/4/4 152/4/4
f 152/4/4 151/4/4 153/4/4
f 154/2/4 155/2/4 156/2/4
f 156/2/4 155/2/4 157/2/4
f 158/4/4 159/4/4 160/4/4
f 160/4/4 159/4/4 161/4/4
f 162/2/4 163/2/4 164/2/4
f 164/2/4 163/2/4 165/2/4
f 165/2/4 163/2/4 166/2/4
f 167/4/4 168/4/4 169/4/4
f 169/4/4 168/4/4 170/4/4
f 171/4/4 172/4/4 173/4/4
f 173/4/4 172/4/4 174/4/4
f 175/2/4 176/2/4 177/2/4
f 177/2/4 176/2/4 178/2/4
f 178/2/4 176/2/4 179/2/4
f 180/2/4 181/2/4 182/2/4
f 182/2/4 181/2/4 183/2/4
f 184/4/4 185/4/4 186/4/4
f 186/4/4 185/4/4 187/4/4
f 188/2/4 189/2/4 190/2/4
f 190/2/4 189/2/4 191/2/4
f 191/2/4 189/2/4 192/2/4
f 193/1/4 194/1/4 197/1/4
f 194/2/4 195/2/4 198/2/4
f 197/1/4 194/1/4 198/1/4
f 195/4/4 196/4/4 199/4/4
f 198/2/4 195/2/4 199/2/4
f 199/4/4 196/4/4 200/4/4
f 203/1/5 202/1/5 201/1/5
f 204/1/5 202/1/5 203/1/5
f 205/3/5 204/3/5 203/3/5
f 206/3/5 204/3/5 205/3/5
f 207/3/5 204/3/5 206/3/5
f 208/3/5 204/3/5 207/3/5
f 209/3/5 205/3/5 203/3/5
f 209/6/5 206/6/5 205/6/5
f 210/3/5 207/3/5 206/3/5
f 210/6/5 206/6/5 209/6/5
f 211/6/5 208/6/5 207/6/5
f 211/3/5 207/3/5 210/3/5
f 212/6/5 208/6/5 211/6/5
f 213/3/5 210/3/5 209/3/5
f 213/3/5 209/3/5 203/3/5
f 213/3/5 212/3/5 211/3/5
f 213/3/5 211/3/5 210/3/5
f 214/3/5 212/3/5 213/3/5
f 215/1/5 214/1/5 213/1/5
f 216/1/5 214/1/5 215/1/5
f 217/6/6 218/6/6 220/6/6
f 218/1/6 219/1/6 220/1/6
f 220/1/6 219/1/6 221/1/6
f 220/6/6 221/6/6 222/6/6
f 221/1/6 219/1/6 222/1/6
f 222/1/6 219/1/6 223/1/6
f 222/6/6 223/6/6 225/6/6
f 223/1/6 224/1/6 225/1/6
f 225/1/6 224/1/6 226/1/6
f 225/6/6 226/6/6 228/6/6
f 226/1/6 227/1/6 228/1/6
f 228/1/6 227/1/6 229/1/6
f 228/6/6 229/6/6 230/6/6
f 228/6/6 230/6/6 232/6/6
f 230/1/6 231/1/6 232/1/6
f 232/1/6 231/1/6 233/1/6
f 232/6/6 233/6/6 236/6/6
f 234/1/6 235/1/6 236/1/6
f 233/6/6 234/6/6 236/6/6
f 236/1/6 235/1/6 237/1/6
f 236/6/6 237/6/6 241/6/6
f 237/1/6 235/1/6 241/1/6
f 241/1/6 235/1/6 242/1/6
f 238/1/6 239/1/6 244/1/6
f 239/3/6 240/3/6 245/3/6
f 244/1/6 239/1/6 245/1/6
f 242/6/6 243/6/6 246/6/6
f 241/6/6 242/6/6 246/6/6
f 238/1/6 244/1/6 248/1/6
f 245/3/6 240/3/6 249/3/6
f 244/6/6 245/6/6 249/6/6
f 249/3/6 240/3/6 250/3/6
f 246/6/6 247/6/6 251/6/6
f 247/1/6 248/1/6 251/1/6
f 249/6/6 250/6/6 252/6/6
f 251/1/6 248/1/6 252/1/6
f 248/1/6 244/1/6 252/1/6
f 244/6/6 249/6/6 252/6/6
f 251/6/6 252/6/6 253/6/6
f 252/6/6 250/6/6 253/6/6
f 253/6/6 250/6/6 254/6/6
f 217/6/6 220/6/6 255/6/6
f 220/6/6 222/6/6 255/6/6
f 222/6/6 225/6/6 255/6/6
f 251/6/6 253/6/6 255/6/6
f 241/6/6 246/6/6 255/6/6
f 225/6/6 228/6/6 255/6/6
f 236/6/6 241/6/6 255/6/6
f 246/6/6 251/6/6 255/6/6
f 228/6/6 232/6/6 255/6/6
f 232/6/6 236/6/6 255/6/6
f 253/3/6 254/3/6 256/3/6
f 255/6/6 253/6/6 256/6/6
f 254/6/6 250/6/6 257/6/6
f 256/3/6 254/3/6 257/3/6
f 257/6/6 250/6/6 258/6/6
f 255/1/6 256/1/6 259/1/6
f 256/1/6 257/1/6 259/1/6
f 257/1/6 258/1/6 259/1/6
f 259/1/6 258/1/6 260/1/6
f 261/2/6 262/2/6 263/2/6
f 263/2/6 262/2/6 264/2/6
f 264/2/6 262/2/6 265/2/6
f 265/2/6 262/2/6 266/2/6
f 266/2/6 267/2/6 268/2/6
f 268/2/6 267/2/6 269/2/6
f 269/2/6 270/2/6 271/2/6
f 269/2/6 271/2/6 273/2/6
f 271/2/6 272/2/6 273/2/6
f 273/2/6 272/2/6 274/2/6
f 274/2/6 272/2/6 275/2/6
f 275/2/6 276/2/6 277/2/6
f 274/2/6 275/2/6 277/2/6
f 277/2/6 276/2/6 278/2/6
f 278/2/6 276/2/6 281/2/6
f 279/2/6 280/2/6 283/2/6
f 283/2/6 280/2/6 284/2/6
f 281/2/6 282/2/6 285/2/6
f 278/2/6 281/2/6 285/2/6
f 285/2/6 282/2/6 286/2/6
f 286/2/6 282/2/6 287/2/6
f 279/2/6 283/2/6 288/2/6
f 286/2/6 287/2/6 289/2/6
f 287/2/6 288/2/6 289/2/6
f 288/2/6 283/2/6 290/2/6
f 289/2/6 288/2/6 290/2/6
f 291/2/6 292/2/6 293/2/6
f 293/2/6 292/2/6 294/2/6
f 294/2/6 292/2/6 295/2/6
f 295/2/6 292/2/6 296/2/6
f 297/4/6 298/4/6 299/4/6
f 299/4/6 298/4/6 300/4/6
f 300/4/6 298/4/6 301/4/6
f 301/4/6 298/4/6 302/4/6
f 302/4/6 298/4/6 303/4/6
f 303/4/6 298/4/6 304/4/6
f 304/4/6 298/4/6 305/4/6
f 305/4/6 298/4/6 306/4/6
f 306/4/6 298/4/6 307/4/6
f 307/4/6 298/4/6 308/4/6
f 308/4/6 298/4/6 309/4/6
f 309/4/6 298/4/6 310/4/6
f 308/4/6 309/4/6 311/4/6
f 311/4/6 309/4/6 312/4/6
f 312/4/6 309/4/6 313/4/6
f 313/4/6 309/4/6 314/4/6
f 315/4/6 316/4/6 319/4/6
f 316/5/6 317/5/6 319/5/6
f 317/4/6 318/4/6 320/4/6
f 319/5/6 317/5/6 320/5/6
f 315/4/6 319/4/6 321/4/6
f 319/4/6 320/4/6 321/4/6
f 320/4/6 318/4/6 322/4/6
f 321/4/6 320/4/6 322/4/6
