# MagicaVoxel @ Ephtracy

# group
o 

# material
mtllib river3-7.mtl
usemtl palette

# normals
vn -1 0 0
vn 1 0 0
vn 0 0 1
vn 0 0 -1
vn 0 -1 0
vn 0 1 0

# texcoords
vt 0.685547 0.5
vt 0.716797 0.5
vt 0.814453 0.5
vt 0.818359 0.5
vt 0.849609 0.5
vt 0.865234 0.5
vt 0.880859 0.5

# verts
v 2.5 0 -2.3
v 2.5 0 -6.3
v 2.5 0.1 -2.3
v 2.5 0.1 -5.2
v 2.5 0.1 -6.3
v 2.5 0.2 -2.3
v 2.5 0.2 -5.2
v 2.5 0.2 -5.4
v 2.5 0.2 -6.3
v 2.5 0.3 -5.4
v 2.5 0.3 -5.7
v 2.5 0.3 -6.3
v 2.5 0.4 -5.7
v 2.5 0.4 -6.3
v 2.6 0.3 -5.6
v 2.6 0.3 -5.7
v 2.6 0.4 -5.6
v 2.6 0.4 -5.7
v 2.7 0.2 -5.3
v 2.7 0.2 -5.4
v 2.7 0.3 -5.3
v 2.7 0.3 -5.4
v 3 0.2 -5.1
v 3 0.2 -5.3
v 3 0.3 -5.1
v 3 0.3 -5.3
v 3 0.3 -5.4
v 3 0.3 -5.6
v 3 0.4 -5.4
v 3 0.4 -5.6
v 3.1 0.2 -5
v 3.1 0.2 -5.1
v 3.1 0.3 -5
v 3.1 0.3 -5.1
v 3.2 0.3 -5.3
v 3.2 0.3 -5.4
v 3.2 0.4 -5.3
v 3.2 0.4 -5.4
v 3.3 0.3 -5
v 3.3 0.3 -5.3
v 3.3 0.4 -5
v 3.3 0.4 -5.3
v 3.5 0.2 -4.9
v 3.5 0.2 -5
v 3.5 0.3 -4.9
v 3.5 0.3 -5
v 5.8 0.3 -5.4
v 5.8 0.3 -5.5
v 5.8 0.4 -5.4
v 5.8 0.4 -5.5
v 5.9 0.2 -5
v 5.9 0.2 -5.2
v 5.9 0.2 -5.3
v 5.9 0.3 -5
v 5.9 0.3 -5.3
v 6 0.2 -4.9
v 6 0.2 -5
v 6 0.3 -4.9
v 6 0.3 -5
v 6 0.3 -5.4
v 6 0.4 -5
v 6 0.4 -5.4
v 4.9 0.3 -5
v 4.9 0.3 -5.2
v 4.9 0.4 -5
v 4.9 0.4 -5.2
v 5 0.2 -4.9
v 5 0.2 -5.1
v 5 0.3 -4.9
v 5 0.3 -5.1
v 5.1 0.3 -5.2
v 5.1 0.3 -5.3
v 5.1 0.4 -5.2
v 5.1 0.4 -5.3
v 5.2 0.2 -5.1
v 5.2 0.2 -5.2
v 5.2 0.3 -5.1
v 5.2 0.3 -5.2
v 5.2 0.3 -5.3
v 5.2 0.3 -5.4
v 5.2 0.4 -5.3
v 5.2 0.4 -5.4
v 5.3 0.2 -5.2
v 5.3 0.2 -5.3
v 5.3 0.3 -5.2
v 5.3 0.3 -5.3
v 5.3 0.3 -5.4
v 5.3 0.3 -5.5
v 5.3 0.4 -5.4
v 5.3 0.4 -5.5
v 6.5 0 -2.3
v 6.5 0 -2.4
v 6.5 0 -6
v 6.5 0 -6.2
v 6.5 0 -6.3
v 6.5 0.1 -2.4
v 6.5 0.1 -3.7
v 6.5 0.1 -3.9
v 6.5 0.1 -4.8
v 6.5 0.1 -4.9
v 6.5 0.1 -5.1
v 6.5 0.1 -5.3
v 6.5 0.1 -6
v 6.5 0.1 -6.2
v 6.5 0.1 -6.3
v 6.5 0.2 -2.3
v 6.5 0.2 -3.7
v 6.5 0.2 -3.9
v 6.5 0.2 -4.8
v 6.5 0.2 -4.9
v 6.5 0.2 -5.1
v 6.5 0.2 -5.3
v 6.5 0.2 -6.2
v 6.5 0.2 -6.3
v 6.5 0.3 -4.9
v 6.5 0.3 -5
v 6.5 0.3 -6.3
v 6.5 0.4 -5
v 6.5 0.4 -6.3
v 2.5 0 -2.3
v 2.5 0.1 -2.3
v 2.5 0.2 -2.3
v 6.1 0 -2.3
v 6.1 0.1 -2.3
v 6.5 0 -2.3
v 6.5 0.2 -2.3
v 3.5 0.2 -4.9
v 3.5 0.3 -4.9
v 5 0.2 -4.9
v 5 0.3 -4.9
v 6 0.2 -4.9
v 6 0.3 -4.9
v 6.5 0.2 -4.9
v 6.5 0.3 -4.9
v 3.1 0.2 -5
v 3.1 0.3 -5
v 3.3 0.3 -5
v 3.3 0.4 -5
v 3.5 0.2 -5
v 3.5 0.3 -5
v 4.9 0.3 -5
v 4.9 0.4 -5
v 5.9 0.2 -5
v 5.9 0.3 -5
v 6 0.2 -5
v 6 0.3 -5
v 6 0.4 -5
v 6.5 0.3 -5
v 6.5 0.4 -5
v 3 0.2 -5.1
v 3 0.3 -5.1
v 3.1 0.2 -5.1
v 3.1 0.3 -5.1
v 5 0.2 -5.1
v 5 0.3 -5.1
v 5.2 0.2 -5.1
v 5.2 0.3 -5.1
v 4.9 0.3 -5.2
v 4.9 0.4 -5.2
v 5.1 0.3 -5.2
v 5.1 0.4 -5.2
v 5.2 0.2 -5.2
v 5.2 0.3 -5.2
v 5.3 0.2 -5.2
v 5.3 0.3 -5.2
v 2.7 0.2 -5.3
v 2.7 0.3 -5.3
v 3 0.2 -5.3
v 3 0.3 -5.3
v 3.2 0.3 -5.3
v 3.2 0.4 -5.3
v 3.3 0.3 -5.3
v 3.3 0.4 -5.3
v 5.1 0.3 -5.3
v 5.1 0.4 -5.3
v 5.2 0.3 -5.3
v 5.2 0.4 -5.3
v 5.3 0.2 -5.3
v 5.3 0.3 -5.3
v 5.8 0.2 -5.3
v 5.9 0.2 -5.3
v 5.9 0.3 -5.3
v 2.5 0.2 -5.4
v 2.5 0.3 -5.4
v 2.7 0.2 -5.4
v 2.7 0.3 -5.4
v 3 0.3 -5.4
v 3 0.4 -5.4
v 3.2 0.3 -5.4
v 3.2 0.4 -5.4
v 5.2 0.3 -5.4
v 5.2 0.4 -5.4
v 5.3 0.3 -5.4
v 5.3 0.4 -5.4
v 5.8 0.3 -5.4
v 5.8 0.4 -5.4
v 6 0.3 -5.4
v 6 0.4 -5.4
v 5.3 0.3 -5.5
v 5.3 0.4 -5.5
v 5.8 0.3 -5.5
v 5.8 0.4 -5.5
v 2.6 0.3 -5.6
v 2.6 0.4 -5.6
v 3 0.3 -5.6
v 3 0.4 -5.6
v 2.5 0.3 -5.7
v 2.5 0.4 -5.7
v 2.6 0.3 -5.7
v 2.6 0.4 -5.7
v 2.5 0 -6.3
v 2.5 0.1 -6.3
v 2.5 0.2 -6.3
v 2.5 0.3 -6.3
v 2.5 0.4 -6.3
v 6.5 0 -6.3
v 6.5 0.1 -6.3
v 6.5 0.2 -6.3
v 6.5 0.3 -6.3
v 6.5 0.4 -6.3
v 2.5 0 -2.3
v 6.1 0 -2.3
v 6.5 0 -2.3
v 6.1 0 -2.4
v 6.5 0 -2.4
v 6.4 0 -6
v 6.5 0 -6
v 6.4 0 -6.2
v 6.5 0 -6.2
v 2.5 0 -6.3
v 6.5 0 -6.3
v 2.5 0.2 -2.3
v 6.5 0.2 -2.3
v 6.4 0.2 -3.7
v 6.5 0.2 -3.7
v 6.4 0.2 -3.9
v 6.5 0.2 -3.9
v 3.4 0.2 -4.8
v 5 0.2 -4.8
v 5.1 0.2 -4.8
v 5.9 0.2 -4.8
v 6.5 0.2 -4.8
v 3 0.2 -4.9
v 3.4 0.2 -4.9
v 3.5 0.2 -4.9
v 5 0.2 -4.9
v 5.1 0.2 -4.9
v 5.8 0.2 -4.9
v 5.9 0.2 -4.9
v 6 0.2 -4.9
v 6.5 0.2 -4.9
v 2.9 0.2 -5
v 3 0.2 -5
v 3.1 0.2 -5
v 3.5 0.2 -5
v 5.1 0.2 -5
v 5.3 0.2 -5
v 5.9 0.2 -5
v 6 0.2 -5
v 3 0.2 -5.1
v 3.1 0.2 -5.1
v 5 0.2 -5.1
v 5.2 0.2 -5.1
v 5.3 0.2 -5.1
v 5.4 0.2 -5.1
v 2.5 0.2 -5.2
v 2.9 0.2 -5.2
v 5.2 0.2 -5.2
v 5.3 0.2 -5.2
v 5.4 0.2 -5.2
v 5.8 0.2 -5.2
v 5.9 0.2 -5.2
v 2.7 0.2 -5.3
v 3 0.2 -5.3
v 5.3 0.2 -5.3
v 5.8 0.2 -5.3
v 5.9 0.2 -5.3
v 2.5 0.2 -5.4
v 2.7 0.2 -5.4
v 3.5 0.3 -4.9
v 5 0.3 -4.9
v 6 0.3 -4.9
v 6.5 0.3 -4.9
v 3.1 0.3 -5
v 3.3 0.3 -5
v 3.5 0.3 -5
v 4.9 0.3 -5
v 5.9 0.3 -5
v 6 0.3 -5
v 6.5 0.3 -5
v 3 0.3 -5.1
v 3.1 0.3 -5.1
v 5 0.3 -5.1
v 5.2 0.3 -5.1
v 4.9 0.3 -5.2
v 5.1 0.3 -5.2
v 5.2 0.3 -5.2
v 5.3 0.3 -5.2
v 2.7 0.3 -5.3
v 3 0.3 -5.3
v 3.2 0.3 -5.3
v 3.3 0.3 -5.3
v 5.1 0.3 -5.3
v 5.2 0.3 -5.3
v 5.3 0.3 -5.3
v 5.9 0.3 -5.3
v 2.5 0.3 -5.4
v 2.7 0.3 -5.4
v 3 0.3 -5.4
v 3.2 0.3 -5.4
v 5.2 0.3 -5.4
v 5.3 0.3 -5.4
v 5.8 0.3 -5.4
v 6 0.3 -5.4
v 5.3 0.3 -5.5
v 5.8 0.3 -5.5
v 2.6 0.3 -5.6
v 3 0.3 -5.6
v 2.5 0.3 -5.7
v 2.6 0.3 -5.7
v 3.3 0.4 -5
v 4.9 0.4 -5
v 6 0.4 -5
v 6.5 0.4 -5
v 4.9 0.4 -5.2
v 5.1 0.4 -5.2
v 3.2 0.4 -5.3
v 3.3 0.4 -5.3
v 5.1 0.4 -5.3
v 5.2 0.4 -5.3
v 3 0.4 -5.4
v 3.2 0.4 -5.4
v 5.2 0.4 -5.4
v 5.3 0.4 -5.4
v 5.8 0.4 -5.4
v 6 0.4 -5.4
v 5.3 0.4 -5.5
v 5.8 0.4 -5.5
v 2.6 0.4 -5.6
v 3 0.4 -5.6
v 2.5 0.4 -5.7
v 2.6 0.4 -5.7
v 2.5 0.4 -6.3
v 6.5 0.4 -6.3

# faces
f 3/7/1 2/7/1 1/7/1
f 4/7/1 2/7/1 3/7/1
f 5/7/1 2/7/1 4/7/1
f 6/5/1 4/5/1 3/5/1
f 7/1/1 5/1/1 4/1/1
f 7/5/1 4/5/1 6/5/1
f 8/1/1 5/1/1 7/1/1
f 9/1/1 5/1/1 8/1/1
f 10/3/1 9/3/1 8/3/1
f 11/3/1 9/3/1 10/3/1
f 12/3/1 9/3/1 11/3/1
f 13/6/1 12/6/1 11/6/1
f 14/6/1 12/6/1 13/6/1
f 17/6/1 16/6/1 15/6/1
f 18/6/1 16/6/1 17/6/1
f 21/3/1 20/3/1 19/3/1
f 22/3/1 20/3/1 21/3/1
f 25/3/1 24/3/1 23/3/1
f 26/3/1 24/3/1 25/3/1
f 29/6/1 28/6/1 27/6/1
f 30/6/1 28/6/1 29/6/1
f 33/3/1 32/3/1 31/3/1
f 34/3/1 32/3/1 33/3/1
f 37/6/1 36/6/1 35/6/1
f 38/6/1 36/6/1 37/6/1
f 41/6/1 40/6/1 39/6/1
f 42/6/1 40/6/1 41/6/1
f 45/3/1 44/3/1 43/3/1
f 46/3/1 44/3/1 45/3/1
f 49/6/1 48/6/1 47/6/1
f 50/6/1 48/6/1 49/6/1
f 54/3/1 52/3/1 51/3/1
f 54/3/1 53/3/1 52/3/1
f 55/3/1 53/3/1 54/3/1
f 58/3/1 57/3/1 56/3/1
f 59/3/1 57/3/1 58/3/1
f 61/6/1 60/6/1 59/6/1
f 62/6/1 60/6/1 61/6/1
f 63/6/2 64/6/2 65/6/2
f 65/6/2 64/6/2 66/6/2
f 67/3/2 68/3/2 69/3/2
f 69/3/2 68/3/2 70/3/2
f 71/6/2 72/6/2 73/6/2
f 73/6/2 72/6/2 74/6/2
f 75/3/2 76/3/2 77/3/2
f 77/3/2 76/3/2 78/3/2
f 79/6/2 80/6/2 81/6/2
f 81/6/2 80/6/2 82/6/2
f 83/3/2 84/3/2 85/3/2
f 85/3/2 84/3/2 86/3/2
f 87/6/2 88/6/2 89/6/2
f 89/6/2 88/6/2 90/6/2
f 91/5/2 92/5/2 96/5/2
f 92/7/2 93/7/2 96/7/2
f 96/7/2 93/7/2 97/7/2
f 97/7/2 93/7/2 98/7/2
f 98/7/2 93/7/2 99/7/2
f 99/7/2 93/7/2 100/7/2
f 100/7/2 93/7/2 101/7/2
f 101/7/2 93/7/2 102/7/2
f 93/1/2 94/1/2 103/1/2
f 102/7/2 93/7/2 103/7/2
f 94/7/2 95/7/2 104/7/2
f 103/1/2 94/1/2 104/1/2
f 104/7/2 95/7/2 105/7/2
f 91/5/2 96/5/2 106/5/2
f 96/5/2 97/5/2 106/5/2
f 97/4/2 98/4/2 107/4/2
f 106/5/2 97/5/2 107/5/2
f 98/5/2 99/5/2 108/5/2
f 107/4/2 98/4/2 108/4/2
f 99/1/2 100/1/2 109/1/2
f 108/5/2 99/5/2 109/5/2
f 100/5/2 101/5/2 110/5/2
f 109/1/2 100/1/2 110/1/2
f 101/2/2 102/2/2 111/2/2
f 110/5/2 101/5/2 111/5/2
f 102/7/2 103/7/2 112/7/2
f 111/2/2 102/2/2 112/2/2
f 103/7/2 104/7/2 112/7/2
f 104/1/2 105/1/2 113/1/2
f 112/7/2 104/7/2 113/7/2
f 113/1/2 105/1/2 114/1/2
f 110/3/2 111/3/2 115/3/2
f 113/3/2 114/3/2 115/3/2
f 112/3/2 113/3/2 115/3/2
f 111/3/2 112/3/2 115/3/2
f 115/3/2 114/3/2 116/3/2
f 116/3/2 114/3/2 117/3/2
f 116/6/2 117/6/2 118/6/2
f 118/6/2 117/6/2 119/6/2
f 123/7/3 121/7/3 120/7/3
f 124/5/3 122/5/3 121/5/3
f 124/7/3 121/7/3 123/7/3
f 125/5/3 124/5/3 123/5/3
f 126/5/3 122/5/3 124/5/3
f 126/5/3 124/5/3 125/5/3
f 129/3/3 128/3/3 127/3/3
f 130/3/3 128/3/3 129/3/3
f 133/3/3 132/3/3 131/3/3
f 134/3/3 132/3/3 133/3/3
f 137/3/3 136/3/3 135/3/3
f 139/3/3 137/3/3 135/3/3
f 140/6/3 138/6/3 137/6/3
f 140/3/3 137/3/3 139/3/3
f 141/6/3 138/6/3 140/6/3
f 142/6/3 138/6/3 141/6/3
f 145/3/3 144/3/3 143/3/3
f 146/3/3 144/3/3 145/3/3
f 148/6/3 147/6/3 146/6/3
f 149/6/3 147/6/3 148/6/3
f 152/3/3 151/3/3 150/3/3
f 153/3/3 151/3/3 152/3/3
f 156/3/3 155/3/3 154/3/3
f 157/3/3 155/3/3 156/3/3
f 160/6/3 159/6/3 158/6/3
f 161/6/3 159/6/3 160/6/3
f 164/3/3 163/3/3 162/3/3
f 165/3/3 163/3/3 164/3/3
f 168/3/3 167/3/3 166/3/3
f 169/3/3 167/3/3 168/3/3
f 172/6/3 171/6/3 170/6/3
f 173/6/3 171/6/3 172/6/3
f 176/6/3 175/6/3 174/6/3
f 177/6/3 175/6/3 176/6/3
f 180/3/3 179/3/3 178/3/3
f 181/3/3 179/3/3 180/3/3
f 182/3/3 179/3/3 181/3/3
f 185/3/3 184/3/3 183/3/3
f 186/3/3 184/3/3 185/3/3
f 189/6/3 188/6/3 187/6/3
f 190/6/3 188/6/3 189/6/3
f 193/6/3 192/6/3 191/6/3
f 194/6/3 192/6/3 193/6/3
f 197/6/3 196/6/3 195/6/3
f 198/6/3 196/6/3 197/6/3
f 201/6/3 200/6/3 199/6/3
f 202/6/3 200/6/3 201/6/3
f 205/6/3 204/6/3 203/6/3
f 206/6/3 204/6/3 205/6/3
f 209/6/3 208/6/3 207/6/3
f 210/6/3 208/6/3 209/6/3
f 211/7/4 212/7/4 216/7/4
f 212/1/4 213/1/4 217/1/4
f 216/7/4 212/7/4 217/7/4
f 213/3/4 214/3/4 218/3/4
f 217/1/4 213/1/4 218/1/4
f 214/6/4 215/6/4 219/6/4
f 218/3/4 214/3/4 219/3/4
f 219/6/4 215/6/4 220/6/4
f 224/7/5 222/7/5 221/7/5
f 224/5/5 223/5/5 222/5/5
f 225/5/5 223/5/5 224/5/5
f 226/7/5 225/7/5 224/7/5
f 227/7/5 225/7/5 226/7/5
f 228/7/5 226/7/5 224/7/5
f 228/1/5 227/1/5 226/1/5
f 229/1/5 227/1/5 228/1/5
f 230/7/5 224/7/5 221/7/5
f 230/7/5 228/7/5 224/7/5
f 230/7/5 229/7/5 228/7/5
f 231/7/5 229/7/5 230/7/5
f 232/5/6 233/5/6 234/5/6
f 234/5/6 233/5/6 235/5/6
f 232/5/6 234/5/6 236/5/6
f 234/4/6 235/4/6 236/4/6
f 236/4/6 235/4/6 237/4/6
f 232/5/6 236/5/6 238/5/6
f 236/5/6 237/5/6 238/5/6
f 238/5/6 237/5/6 239/5/6
f 239/5/6 237/5/6 240/5/6
f 240/5/6 237/5/6 241/5/6
f 241/5/6 237/5/6 242/5/6
f 232/5/6 238/5/6 243/5/6
f 238/1/6 239/1/6 244/1/6
f 243/5/6 238/5/6 244/5/6
f 244/1/6 239/1/6 245/1/6
f 239/2/6 240/2/6 246/2/6
f 245/1/6 239/1/6 246/1/6
f 240/5/6 241/5/6 247/5/6
f 246/2/6 240/2/6 247/2/6
f 247/5/6 241/5/6 248/5/6
f 241/1/6 242/1/6 249/1/6
f 248/5/6 241/5/6 249/5/6
f 249/1/6 242/1/6 250/1/6
f 250/1/6 242/1/6 251/1/6
f 232/5/6 243/5/6 252/5/6
f 244/1/6 245/1/6 253/1/6
f 252/5/6 243/5/6 253/5/6
f 243/1/6 244/1/6 253/1/6
f 253/1/6 245/1/6 254/1/6
f 254/1/6 245/1/6 255/1/6
f 247/5/6 248/5/6 256/5/6
f 246/1/6 247/1/6 256/1/6
f 256/5/6 248/5/6 257/5/6
f 249/1/6 250/1/6 258/1/6
f 248/1/6 249/1/6 258/1/6
f 258/1/6 250/1/6 259/1/6
f 253/1/6 254/1/6 260/1/6
f 252/1/6 253/1/6 260/1/6
f 260/1/6 254/1/6 261/1/6
f 256/1/6 257/1/6 262/1/6
f 246/1/6 256/1/6 262/1/6
f 262/1/6 257/1/6 263/1/6
f 257/5/6 248/5/6 264/5/6
f 263/1/6 257/1/6 264/1/6
f 264/5/6 248/5/6 265/5/6
f 232/5/6 252/5/6 266/5/6
f 252/1/6 260/1/6 267/1/6
f 266/5/6 252/5/6 267/5/6
f 264/1/6 265/1/6 268/1/6
f 263/1/6 264/1/6 268/1/6
f 268/1/6 265/1/6 269/1/6
f 265/5/6 248/5/6 270/5/6
f 269/1/6 265/1/6 270/1/6
f 248/1/6 258/1/6 271/1/6
f 270/5/6 248/5/6 271/5/6
f 271/1/6 258/1/6 272/1/6
f 266/1/6 267/1/6 273/1/6
f 267/1/6 260/1/6 274/1/6
f 273/1/6 267/1/6 274/1/6
f 269/1/6 270/1/6 275/1/6
f 270/1/6 271/1/6 275/1/6
f 271/2/6 272/2/6 276/2/6
f 275/1/6 271/1/6 276/1/6
f 276/2/6 272/2/6 277/2/6
f 266/1/6 273/1/6 278/1/6
f 278/1/6 273/1/6 279/1/6
f 280/3/6 281/3/6 286/3/6
f 286/3/6 281/3/6 287/3/6
f 282/3/6 283/3/6 289/3/6
f 289/3/6 283/3/6 290/3/6
f 284/3/6 285/3/6 292/3/6
f 287/3/6 281/3/6 293/3/6
f 287/3/6 293/3/6 295/3/6
f 293/3/6 294/3/6 295/3/6
f 295/3/6 294/3/6 296/3/6
f 296/3/6 294/3/6 297/3/6
f 291/3/6 292/3/6 300/3/6
f 292/3/6 285/3/6 301/3/6
f 300/3/6 292/3/6 301/3/6
f 301/3/6 285/3/6 302/3/6
f 296/3/6 297/3/6 303/3/6
f 297/3/6 298/3/6 303/3/6
f 303/3/6 298/3/6 304/3/6
f 304/3/6 298/3/6 305/3/6
f 288/3/6 289/3/6 306/3/6
f 299/3/6 300/3/6 308/3/6
f 300/3/6 301/3/6 308/3/6
f 308/3/6 301/3/6 309/3/6
f 309/3/6 301/3/6 310/3/6
f 304/3/6 305/3/6 311/3/6
f 305/3/6 306/3/6 311/3/6
f 311/3/6 306/3/6 312/3/6
f 312/3/6 306/3/6 313/3/6
f 306/3/6 289/3/6 314/3/6
f 313/3/6 306/3/6 314/3/6
f 312/3/6 313/3/6 315/3/6
f 315/3/6 313/3/6 316/3/6
f 308/3/6 309/3/6 317/3/6
f 307/3/6 308/3/6 317/3/6
f 317/3/6 309/3/6 318/3/6
f 307/3/6 317/3/6 319/3/6
f 319/3/6 317/3/6 320/3/6
f 321/6/6 322/6/6 325/6/6
f 321/6/6 325/6/6 328/6/6
f 325/6/6 326/6/6 328/6/6
f 328/6/6 326/6/6 329/6/6
f 327/6/6 328/6/6 332/6/6
f 329/6/6 330/6/6 332/6/6
f 328/6/6 329/6/6 332/6/6
f 332/6/6 330/6/6 333/6/6
f 323/6/6 324/6/6 336/6/6
f 333/6/6 334/6/6 337/6/6
f 331/6/6 332/6/6 337/6/6
f 332/6/6 333/6/6 337/6/6
f 335/6/6 336/6/6 338/6/6
f 331/6/6 337/6/6 340/6/6
f 337/6/6 338/6/6 340/6/6
f 339/6/6 340/6/6 342/6/6
f 341/6/6 342/6/6 343/6/6
f 338/6/6 336/6/6 344/6/6
f 343/6/6 342/6/6 344/6/6
f 336/6/6 324/6/6 344/6/6
f 342/6/6 340/6/6 344/6/6
f 340/6/6 338/6/6 344/6/6
