# MagicaVoxel @ Ephtracy

# group
o 

# material
mtllib teste-5.mtl
usemtl palette

# normals
vn -1 0 0
vn 1 0 0
vn 0 0 1
vn 0 0 -1
vn 0 -1 0
vn 0 1 0

# texcoords
vt 0.685547 0.5
vt 0.716797 0.5
vt 0.814453 0.5
vt 0.818359 0.5
vt 0.865234 0.5
vt 0.880859 0.5

# verts
v 6.5 0 -2.3
v 6.5 0 -6.3
v 6.5 0.1 -4.8
v 6.5 0.1 -4.9
v 6.5 0.1 -5.2
v 6.5 0.1 -6.3
v 6.5 0.2 -2.3
v 6.5 0.2 -4.8
v 6.5 0.2 -4.9
v 6.5 0.2 -5.2
v 6.5 0.2 -6.3
v 6.5 0.3 -4.9
v 6.5 0.3 -5
v 6.5 0.3 -6.3
v 6.5 0.4 -5
v 6.5 0.4 -6.3
v 8.2 0.2 -5.2
v 8.2 0.2 -5.6
v 8.2 0.3 -5.2
v 8.2 0.3 -5.6
v 8.3 0.2 -5.1
v 8.3 0.2 -5.2
v 8.3 0.3 -5.1
v 8.3 0.3 -5.2
v 8.3 0.3 -5.3
v 8.3 0.3 -5.7
v 8.3 0.4 -5.3
v 8.3 0.4 -5.7
v 8.4 0.2 -4.9
v 8.4 0.2 -5.1
v 8.4 0.3 -4.9
v 8.4 0.3 -5.1
v 8.4 0.3 -5.2
v 8.4 0.3 -5.3
v 8.4 0.4 -5.2
v 8.4 0.4 -5.3
v 8.5 0.3 -5
v 8.5 0.3 -5.2
v 8.5 0.4 -5
v 8.5 0.4 -5.2
v 9.9 0.2 -4.9
v 9.9 0.2 -5.3
v 9.9 0.3 -4.9
v 9.9 0.3 -5.3
v 10 0.3 -5
v 10 0.3 -5.4
v 10 0.4 -5
v 10 0.4 -5.4
v 7.5 0.3 -5
v 7.5 0.3 -5.5
v 7.5 0.4 -5
v 7.5 0.4 -5.5
v 7.6 0.2 -4.9
v 7.6 0.2 -5.4
v 7.6 0.3 -4.9
v 7.6 0.3 -5.4
v 7.6 0.3 -5.5
v 7.6 0.3 -5.6
v 7.6 0.4 -5.5
v 7.6 0.4 -5.6
v 7.7 0.2 -5.4
v 7.7 0.2 -5.5
v 7.7 0.3 -5.4
v 7.7 0.3 -5.5
v 7.7 0.3 -5.6
v 7.7 0.3 -5.7
v 7.7 0.4 -5.6
v 7.7 0.4 -5.7
v 7.8 0.2 -5.5
v 7.8 0.2 -5.6
v 7.8 0.3 -5.5
v 7.8 0.3 -5.6
v 8.9 0.3 -5
v 8.9 0.3 -5.2
v 8.9 0.4 -5
v 8.9 0.4 -5.2
v 9 0.2 -4.9
v 9 0.2 -5.1
v 9 0.3 -4.9
v 9 0.3 -5.1
v 9.1 0.3 -5.2
v 9.1 0.3 -5.3
v 9.1 0.4 -5.2
v 9.1 0.4 -5.3
v 9.2 0.2 -5.1
v 9.2 0.2 -5.2
v 9.2 0.3 -5.1
v 9.2 0.3 -5.2
v 9.2 0.3 -5.3
v 9.2 0.3 -5.4
v 9.2 0.4 -5.3
v 9.2 0.4 -5.4
v 9.3 0.2 -5.2
v 9.3 0.2 -5.3
v 9.3 0.3 -5.2
v 9.3 0.3 -5.3
v 10.5 0 -2.3
v 10.5 0 -6.3
v 10.5 0.1 -3.7
v 10.5 0.1 -3.9
v 10.5 0.1 -4.8
v 10.5 0.1 -4.9
v 10.5 0.1 -6.2
v 10.5 0.1 -6.3
v 10.5 0.2 -2.3
v 10.5 0.2 -3.7
v 10.5 0.2 -3.9
v 10.5 0.2 -4.8
v 10.5 0.2 -4.9
v 10.5 0.2 -6.2
v 10.5 0.2 -6.3
v 10.5 0.3 -4.9
v 10.5 0.3 -5
v 10.5 0.3 -6.3
v 10.5 0.4 -5
v 10.5 0.4 -6.3
v 6.5 0 -2.3
v 6.5 0.2 -2.3
v 10.5 0 -2.3
v 10.5 0.2 -2.3
v 6.5 0.2 -4.9
v 6.5 0.3 -4.9
v 7.6 0.2 -4.9
v 7.6 0.3 -4.9
v 8.4 0.2 -4.9
v 8.4 0.3 -4.9
v 9 0.2 -4.9
v 9 0.3 -4.9
v 9.9 0.2 -4.9
v 9.9 0.3 -4.9
v 10.5 0.2 -4.9
v 10.5 0.3 -4.9
v 6.5 0.3 -5
v 6.5 0.4 -5
v 7.5 0.3 -5
v 7.5 0.4 -5
v 8.5 0.3 -5
v 8.5 0.4 -5
v 8.9 0.3 -5
v 8.9 0.4 -5
v 10 0.3 -5
v 10 0.4 -5
v 10.5 0.3 -5
v 10.5 0.4 -5
v 8.3 0.2 -5.1
v 8.3 0.3 -5.1
v 8.4 0.2 -5.1
v 8.4 0.3 -5.1
v 9 0.2 -5.1
v 9 0.3 -5.1
v 9.2 0.2 -5.1
v 9.2 0.3 -5.1
v 8.2 0.2 -5.2
v 8.2 0.3 -5.2
v 8.3 0.2 -5.2
v 8.3 0.3 -5.2
v 8.4 0.3 -5.2
v 8.4 0.4 -5.2
v 8.5 0.3 -5.2
v 8.5 0.4 -5.2
v 8.9 0.3 -5.2
v 8.9 0.4 -5.2
v 9.1 0.3 -5.2
v 9.1 0.4 -5.2
v 9.2 0.2 -5.2
v 9.2 0.3 -5.2
v 9.3 0.2 -5.2
v 9.3 0.3 -5.2
v 8.3 0.3 -5.3
v 8.3 0.4 -5.3
v 8.4 0.3 -5.3
v 8.4 0.4 -5.3
v 9.1 0.3 -5.3
v 9.1 0.4 -5.3
v 9.2 0.3 -5.3
v 9.2 0.4 -5.3
v 9.3 0.2 -5.3
v 9.3 0.3 -5.3
v 9.9 0.2 -5.3
v 9.9 0.3 -5.3
v 7.6 0.2 -5.4
v 7.6 0.3 -5.4
v 7.7 0.2 -5.4
v 7.7 0.3 -5.4
v 9.2 0.3 -5.4
v 9.2 0.4 -5.4
v 10 0.3 -5.4
v 10 0.4 -5.4
v 7.5 0.3 -5.5
v 7.5 0.4 -5.5
v 7.6 0.3 -5.5
v 7.6 0.4 -5.5
v 7.7 0.2 -5.5
v 7.7 0.3 -5.5
v 7.8 0.2 -5.5
v 7.8 0.3 -5.5
v 7.6 0.3 -5.6
v 7.6 0.4 -5.6
v 7.7 0.3 -5.6
v 7.7 0.4 -5.6
v 7.8 0.2 -5.6
v 7.8 0.3 -5.6
v 8.2 0.2 -5.6
v 8.2 0.3 -5.6
v 7.7 0.3 -5.7
v 7.7 0.4 -5.7
v 8.3 0.3 -5.7
v 8.3 0.4 -5.7
v 6.5 0 -6.3
v 6.5 0.1 -6.3
v 6.5 0.2 -6.3
v 6.5 0.3 -6.3
v 6.5 0.4 -6.3
v 10.5 0 -6.3
v 10.5 0.1 -6.3
v 10.5 0.2 -6.3
v 10.5 0.3 -6.3
v 10.5 0.4 -6.3
v 6.5 0 -2.3
v 10.5 0 -2.3
v 6.5 0 -6.3
v 10.5 0 -6.3
v 6.5 0.2 -2.3
v 10.5 0.2 -2.3
v 10.4 0.2 -3.7
v 10.5 0.2 -3.7
v 10.4 0.2 -3.9
v 10.5 0.2 -3.9
v 6.5 0.2 -4.8
v 7.6 0.2 -4.8
v 7.7 0.2 -4.8
v 8.3 0.2 -4.8
v 9.1 0.2 -4.8
v 9.8 0.2 -4.8
v 10.5 0.2 -4.8
v 6.5 0.2 -4.9
v 7.6 0.2 -4.9
v 8.4 0.2 -4.9
v 9 0.2 -4.9
v 9.9 0.2 -4.9
v 10.5 0.2 -4.9
v 8.1 0.2 -5
v 8.3 0.2 -5
v 9.1 0.2 -5
v 9.3 0.2 -5
v 8.3 0.2 -5.1
v 8.4 0.2 -5.1
v 9 0.2 -5.1
v 9.2 0.2 -5.1
v 9.3 0.2 -5.1
v 9.4 0.2 -5.1
v 8.2 0.2 -5.2
v 8.3 0.2 -5.2
v 9.2 0.2 -5.2
v 9.3 0.2 -5.2
v 9.4 0.2 -5.2
v 9.8 0.2 -5.2
v 7.7 0.2 -5.3
v 7.8 0.2 -5.3
v 9.3 0.2 -5.3
v 9.9 0.2 -5.3
v 7.6 0.2 -5.4
v 7.7 0.2 -5.4
v 7.8 0.2 -5.4
v 7.9 0.2 -5.4
v 7.7 0.2 -5.5
v 7.8 0.2 -5.5
v 7.9 0.2 -5.5
v 8.1 0.2 -5.5
v 7.8 0.2 -5.6
v 8.2 0.2 -5.6
v 6.5 0.3 -4.9
v 7.6 0.3 -4.9
v 8.4 0.3 -4.9
v 9 0.3 -4.9
v 9.9 0.3 -4.9
v 10.5 0.3 -4.9
v 6.5 0.3 -5
v 7.5 0.3 -5
v 8.5 0.3 -5
v 8.9 0.3 -5
v 10 0.3 -5
v 10.5 0.3 -5
v 8.3 0.3 -5.1
v 8.4 0.3 -5.1
v 9 0.3 -5.1
v 9.2 0.3 -5.1
v 8.2 0.3 -5.2
v 8.3 0.3 -5.2
v 8.4 0.3 -5.2
v 8.5 0.3 -5.2
v 8.9 0.3 -5.2
v 9.1 0.3 -5.2
v 9.2 0.3 -5.2
v 9.3 0.3 -5.2
v 8.3 0.3 -5.3
v 8.4 0.3 -5.3
v 9.1 0.3 -5.3
v 9.2 0.3 -5.3
v 9.3 0.3 -5.3
v 9.9 0.3 -5.3
v 7.6 0.3 -5.4
v 7.7 0.3 -5.4
v 9.2 0.3 -5.4
v 10 0.3 -5.4
v 7.5 0.3 -5.5
v 7.6 0.3 -5.5
v 7.7 0.3 -5.5
v 7.8 0.3 -5.5
v 7.6 0.3 -5.6
v 7.7 0.3 -5.6
v 7.8 0.3 -5.6
v 8.2 0.3 -5.6
v 7.7 0.3 -5.7
v 8.3 0.3 -5.7
v 6.5 0.4 -5
v 7.5 0.4 -5
v 8.5 0.4 -5
v 8.9 0.4 -5
v 10 0.4 -5
v 10.5 0.4 -5
v 8.4 0.4 -5.2
v 8.5 0.4 -5.2
v 8.9 0.4 -5.2
v 9.1 0.4 -5.2
v 8.3 0.4 -5.3
v 8.4 0.4 -5.3
v 9.1 0.4 -5.3
v 9.2 0.4 -5.3
v 9.2 0.4 -5.4
v 10 0.4 -5.4
v 7.5 0.4 -5.5
v 7.6 0.4 -5.5
v 7.6 0.4 -5.6
v 7.7 0.4 -5.6
v 7.7 0.4 -5.7
v 8.3 0.4 -5.7
v 6.5 0.4 -6.3
v 10.5 0.4 -6.3

# faces
f 3/6/1 2/6/1 1/6/1
f 4/6/1 2/6/1 3/6/1
f 5/6/1 2/6/1 4/6/1
f 6/6/1 2/6/1 5/6/1
f 7/6/1 3/6/1 1/6/1
f 8/1/1 4/1/1 3/1/1
f 8/6/1 3/6/1 7/6/1
f 9/6/1 5/6/1 4/6/1
f 9/1/1 4/1/1 8/1/1
f 10/1/1 6/1/1 5/1/1
f 10/6/1 5/6/1 9/6/1
f 11/1/1 6/1/1 10/1/1
f 12/3/1 11/3/1 10/3/1
f 12/3/1 10/3/1 9/3/1
f 13/3/1 11/3/1 12/3/1
f 14/3/1 11/3/1 13/3/1
f 15/5/1 14/5/1 13/5/1
f 16/5/1 14/5/1 15/5/1
f 19/3/1 18/3/1 17/3/1
f 20/3/1 18/3/1 19/3/1
f 23/3/1 22/3/1 21/3/1
f 24/3/1 22/3/1 23/3/1
f 27/5/1 26/5/1 25/5/1
f 28/5/1 26/5/1 27/5/1
f 31/3/1 30/3/1 29/3/1
f 32/3/1 30/3/1 31/3/1
f 35/5/1 34/5/1 33/5/1
f 36/5/1 34/5/1 35/5/1
f 39/5/1 38/5/1 37/5/1
f 40/5/1 38/5/1 39/5/1
f 43/3/1 42/3/1 41/3/1
f 44/3/1 42/3/1 43/3/1
f 47/5/1 46/5/1 45/5/1
f 48/5/1 46/5/1 47/5/1
f 49/5/2 50/5/2 51/5/2
f 51/5/2 50/5/2 52/5/2
f 53/3/2 54/3/2 55/3/2
f 55/3/2 54/3/2 56/3/2
f 57/5/2 58/5/2 59/5/2
f 59/5/2 58/5/2 60/5/2
f 61/3/2 62/3/2 63/3/2
f 63/3/2 62/3/2 64/3/2
f 65/5/2 66/5/2 67/5/2
f 67/5/2 66/5/2 68/5/2
f 69/3/2 70/3/2 71/3/2
f 71/3/2 70/3/2 72/3/2
f 73/5/2 74/5/2 75/5/2
f 75/5/2 74/5/2 76/5/2
f 77/3/2 78/3/2 79/3/2
f 79/3/2 78/3/2 80/3/2
f 81/5/2 82/5/2 83/5/2
f 83/5/2 82/5/2 84/5/2
f 85/3/2 86/3/2 87/3/2
f 87/3/2 86/3/2 88/3/2
f 89/5/2 90/5/2 91/5/2
f 91/5/2 90/5/2 92/5/2
f 93/3/2 94/3/2 95/3/2
f 95/3/2 94/3/2 96/3/2
f 97/6/2 98/6/2 99/6/2
f 99/6/2 98/6/2 100/6/2
f 100/6/2 98/6/2 101/6/2
f 101/6/2 98/6/2 102/6/2
f 102/6/2 98/6/2 103/6/2
f 103/6/2 98/6/2 104/6/2
f 97/6/2 99/6/2 105/6/2
f 99/4/2 100/4/2 106/4/2
f 105/6/2 99/6/2 106/6/2
f 100/6/2 101/6/2 107/6/2
f 106/4/2 100/4/2 107/4/2
f 101/2/2 102/2/2 108/2/2
f 107/6/2 101/6/2 108/6/2
f 102/6/2 103/6/2 109/6/2
f 108/2/2 102/2/2 109/2/2
f 103/1/2 104/1/2 110/1/2
f 109/6/2 103/6/2 110/6/2
f 110/1/2 104/1/2 111/1/2
f 110/3/2 111/3/2 112/3/2
f 109/3/2 110/3/2 112/3/2
f 112/3/2 111/3/2 113/3/2
f 113/3/2 111/3/2 114/3/2
f 113/5/2 114/5/2 115/5/2
f 115/5/2 114/5/2 116/5/2
f 119/6/3 118/6/3 117/6/3
f 120/6/3 118/6/3 119/6/3
f 123/3/3 122/3/3 121/3/3
f 124/3/3 122/3/3 123/3/3
f 127/3/3 126/3/3 125/3/3
f 128/3/3 126/3/3 127/3/3
f 131/3/3 130/3/3 129/3/3
f 132/3/3 130/3/3 131/3/3
f 135/5/3 134/5/3 133/5/3
f 136/5/3 134/5/3 135/5/3
f 139/5/3 138/5/3 137/5/3
f 140/5/3 138/5/3 139/5/3
f 143/5/3 142/5/3 141/5/3
f 144/5/3 142/5/3 143/5/3
f 147/3/3 146/3/3 145/3/3
f 148/3/3 146/3/3 147/3/3
f 151/3/3 150/3/3 149/3/3
f 152/3/3 150/3/3 151/3/3
f 155/3/3 154/3/3 153/3/3
f 156/3/3 154/3/3 155/3/3
f 159/5/3 158/5/3 157/5/3
f 160/5/3 158/5/3 159/5/3
f 163/5/3 162/5/3 161/5/3
f 164/5/3 162/5/3 163/5/3
f 167/3/3 166/3/3 165/3/3
f 168/3/3 166/3/3 167/3/3
f 171/5/3 170/5/3 169/5/3
f 172/5/3 170/5/3 171/5/3
f 175/5/3 174/5/3 173/5/3
f 176/5/3 174/5/3 175/5/3
f 179/3/3 178/3/3 177/3/3
f 180/3/3 178/3/3 179/3/3
f 183/3/3 182/3/3 181/3/3
f 184/3/3 182/3/3 183/3/3
f 187/5/3 186/5/3 185/5/3
f 188/5/3 186/5/3 187/5/3
f 191/5/3 190/5/3 189/5/3
f 192/5/3 190/5/3 191/5/3
f 195/3/3 194/3/3 193/3/3
f 196/3/3 194/3/3 195/3/3
f 199/5/3 198/5/3 197/5/3
f 200/5/3 198/5/3 199/5/3
f 203/3/3 202/3/3 201/3/3
f 204/3/3 202/3/3 203/3/3
f 207/5/3 206/5/3 205/5/3
f 208/5/3 206/5/3 207/5/3
f 209/6/4 210/6/4 214/6/4
f 210/1/4 211/1/4 215/1/4
f 214/6/4 210/6/4 215/6/4
f 211/3/4 212/3/4 216/3/4
f 215/1/4 211/1/4 216/1/4
f 212/5/4 213/5/4 217/5/4
f 216/3/4 212/3/4 217/3/4
f 217/5/4 213/5/4 218/5/4
f 221/6/5 220/6/5 219/6/5
f 222/6/5 220/6/5 221/6/5
f 223/6/6 224/6/6 225/6/6
f 225/6/6 224/6/6 226/6/6
f 223/6/6 225/6/6 227/6/6
f 225/4/6 226/4/6 227/4/6
f 227/4/6 226/4/6 228/4/6
f 223/6/6 227/6/6 229/6/6
f 227/6/6 228/6/6 229/6/6
f 229/6/6 228/6/6 230/6/6
f 230/6/6 228/6/6 231/6/6
f 231/6/6 228/6/6 232/6/6
f 232/6/6 228/6/6 233/6/6
f 233/6/6 228/6/6 234/6/6
f 234/6/6 228/6/6 235/6/6
f 229/1/6 230/1/6 236/1/6
f 230/2/6 231/2/6 237/2/6
f 236/1/6 230/1/6 237/1/6
f 232/2/6 233/2/6 238/2/6
f 238/2/6 233/2/6 239/2/6
f 234/2/6 235/2/6 240/2/6
f 240/2/6 235/2/6 241/2/6
f 231/6/6 232/6/6 242/6/6
f 232/2/6 238/2/6 243/2/6
f 242/6/6 232/6/6 243/6/6
f 233/6/6 234/6/6 244/6/6
f 239/2/6 233/2/6 244/2/6
f 244/6/6 234/6/6 245/6/6
f 243/2/6 238/2/6 246/2/6
f 242/2/6 243/2/6 246/2/6
f 246/2/6 238/2/6 247/2/6
f 244/2/6 245/2/6 248/2/6
f 239/2/6 244/2/6 248/2/6
f 248/2/6 245/2/6 249/2/6
f 245/6/6 234/6/6 250/6/6
f 249/2/6 245/2/6 250/2/6
f 250/6/6 234/6/6 251/6/6
f 242/2/6 246/2/6 252/2/6
f 252/2/6 246/2/6 253/2/6
f 250/2/6 251/2/6 254/2/6
f 249/2/6 250/2/6 254/2/6
f 254/2/6 251/2/6 255/2/6
f 251/6/6 234/6/6 256/6/6
f 255/2/6 251/2/6 256/2/6
f 234/2/6 240/2/6 257/2/6
f 256/6/6 234/6/6 257/6/6
f 237/2/6 231/2/6 258/2/6
f 231/6/6 242/6/6 258/6/6
f 258/6/6 242/6/6 259/6/6
f 256/2/6 257/2/6 260/2/6
f 255/2/6 256/2/6 260/2/6
f 257/2/6 240/2/6 261/2/6
f 260/2/6 257/2/6 261/2/6
f 258/2/6 259/2/6 262/2/6
f 237/2/6 258/2/6 262/2/6
f 262/2/6 259/2/6 263/2/6
f 259/6/6 242/6/6 264/6/6
f 263/2/6 259/2/6 264/2/6
f 264/6/6 242/6/6 265/6/6
f 263/2/6 264/2/6 266/2/6
f 264/2/6 265/2/6 266/2/6
f 266/2/6 265/2/6 267/2/6
f 265/6/6 242/6/6 268/6/6
f 267/2/6 265/2/6 268/2/6
f 242/2/6 252/2/6 269/2/6
f 268/6/6 242/6/6 269/6/6
f 267/2/6 268/2/6 270/2/6
f 268/2/6 269/2/6 270/2/6
f 269/2/6 252/2/6 271/2/6
f 270/2/6 269/2/6 271/2/6
f 272/3/6 273/3/6 278/3/6
f 278/3/6 273/3/6 279/3/6
f 274/3/6 275/3/6 280/3/6
f 280/3/6 275/3/6 281/3/6
f 276/3/6 277/3/6 282/3/6
f 282/3/6 277/3/6 283/3/6
f 274/3/6 280/3/6 285/3/6
f 281/3/6 275/3/6 286/3/6
f 284/3/6 285/3/6 289/3/6
f 285/3/6 280/3/6 290/3/6
f 289/3/6 285/3/6 290/3/6
f 290/3/6 280/3/6 291/3/6
f 286/3/6 287/3/6 292/3/6
f 281/3/6 286/3/6 292/3/6
f 292/3/6 287/3/6 293/3/6
f 293/3/6 287/3/6 294/3/6
f 288/3/6 289/3/6 296/3/6
f 289/3/6 290/3/6 296/3/6
f 296/3/6 290/3/6 297/3/6
f 294/3/6 295/3/6 298/3/6
f 293/3/6 294/3/6 298/3/6
f 298/3/6 295/3/6 299/3/6
f 299/3/6 295/3/6 300/3/6
f 276/3/6 282/3/6 301/3/6
f 279/3/6 273/3/6 302/3/6
f 300/3/6 301/3/6 304/3/6
f 299/3/6 300/3/6 304/3/6
f 301/3/6 282/3/6 305/3/6
f 304/3/6 301/3/6 305/3/6
f 302/3/6 303/3/6 306/3/6
f 279/3/6 302/3/6 306/3/6
f 306/3/6 303/3/6 307/3/6
f 307/3/6 303/3/6 308/3/6
f 308/3/6 309/3/6 310/3/6
f 307/3/6 308/3/6 310/3/6
f 310/3/6 309/3/6 311/3/6
f 311/3/6 309/3/6 312/3/6
f 288/3/6 296/3/6 313/3/6
f 311/3/6 312/3/6 314/3/6
f 312/3/6 313/3/6 314/3/6
f 313/3/6 296/3/6 315/3/6
f 314/3/6 313/3/6 315/3/6
f 318/5/6 319/5/6 323/5/6
f 323/5/6 319/5/6 324/5/6
f 322/5/6 323/5/6 327/5/6
f 324/5/6 325/5/6 327/5/6
f 323/5/6 324/5/6 327/5/6
f 327/5/6 325/5/6 328/5/6
f 326/5/6 327/5/6 330/5/6
f 328/5/6 329/5/6 330/5/6
f 327/5/6 328/5/6 330/5/6
f 320/5/6 321/5/6 331/5/6
f 316/5/6 317/5/6 332/5/6
f 332/5/6 333/5/6 334/5/6
f 334/5/6 335/5/6 336/5/6
f 330/5/6 331/5/6 337/5/6
f 326/5/6 330/5/6 337/5/6
f 334/5/6 336/5/6 338/5/6
f 336/5/6 337/5/6 338/5/6
f 332/5/6 334/5/6 338/5/6
f 316/5/6 332/5/6 338/5/6
f 337/5/6 331/5/6 339/5/6
f 338/5/6 337/5/6 339/5/6
f 331/5/6 321/5/6 339/5/6
