# MagicaVoxel @ Ephtracy

# group
o River

# material
mtllib river3-7-River.mtl
usemtl palette

# normals
vn -1 0 0
vn 1 0 0
vn 0 0 1
vn 0 0 -1
vn 0 -1 0
vn 0 1 0

# texcoords
vt 0.716797 0.5
vt 0.814453 0.5
vt 0.818359 0.5
vt 0.833984 0.5
vt 0.880859 0.5

# verts
v -16.9 0 -0.5
v -16.9 0 -4.5
v -16.9 0.1 -0.5
v -16.9 0.1 -1.2
v -16.9 0.2 -0.5
v -16.9 0.2 -1.2
v -16.9 0.2 -4.5
v -16.9 0.3 -0.5
v -16.9 0.3 -1.1
v -16.9 0.3 -1.2
v -16.9 0.4 -0.5
v -16.9 0.4 -1.1
v -16.5 0.2 -1.2
v -16.5 0.2 -1.4
v -16.5 0.3 -1.2
v -16.5 0.3 -1.4
v -16.4 0.2 -1.4
v -16.4 0.2 -1.5
v -16.4 0.3 -1.1
v -16.4 0.3 -1.4
v -16.4 0.3 -1.5
v -16.4 0.4 -1.1
v -16.4 0.4 -1.4
v -16.1 0.2 -1.5
v -16.1 0.2 -1.6
v -16.1 0.2 -1.7
v -16.1 0.3 -1.4
v -16.1 0.3 -1.5
v -16.1 0.3 -1.7
v -16.1 0.4 -1.4
v -16.1 0.4 -1.5
v -16 0.2 -1.7
v -16 0.2 -1.8
v -16 0.3 -1.5
v -16 0.3 -1.6
v -16 0.3 -1.7
v -16 0.3 -1.8
v -16 0.4 -1.5
v -16 0.4 -1.6
v -15.7 0.2 -1.8
v -15.7 0.2 -2
v -15.7 0.3 -1.6
v -15.7 0.3 -1.7
v -15.7 0.3 -1.8
v -15.7 0.3 -2
v -15.7 0.4 -1.6
v -15.7 0.4 -1.7
v -15.6 0.3 -1.7
v -15.6 0.3 -1.9
v -15.6 0.4 -1.7
v -15.6 0.4 -1.9
v -15.5 0.2 -2
v -15.5 0.2 -2.1
v -15.5 0.3 -2
v -15.5 0.3 -2.1
v -15.4 0.3 -1.9
v -15.4 0.3 -2
v -15.4 0.4 -1.9
v -15.4 0.4 -2
v -14.2 0.3 -1.8
v -14.2 0.3 -2
v -14.2 0.4 -1.8
v -14.2 0.4 -2
v -14.1 0.2 -1.9
v -14.1 0.2 -2.1
v -14.1 0.3 -1.9
v -14.1 0.3 -2.1
v -12.9 0 -0.5
v -12.9 0 -4.5
v -12.9 0.1 -0.5
v -12.9 0.1 -1.9
v -12.9 0.1 -2.1
v -12.9 0.2 -0.5
v -12.9 0.2 -1.9
v -12.9 0.2 -2.1
v -12.9 0.2 -4.5
v -12.9 0.3 -0.5
v -12.9 0.3 -1.8
v -12.9 0.3 -1.9
v -12.9 0.4 -0.5
v -12.9 0.4 -1.8
v -16.9 0 -0.5
v -16.9 0.1 -0.5
v -16.9 0.2 -0.5
v -16.9 0.3 -0.5
v -16.9 0.4 -0.5
v -12.9 0 -0.5
v -12.9 0.1 -0.5
v -12.9 0.2 -0.5
v -12.9 0.3 -0.5
v -12.9 0.4 -0.5
v -16.9 0.3 -1.1
v -16.9 0.4 -1.1
v -16.4 0.3 -1.1
v -16.4 0.4 -1.1
v -16.9 0.2 -1.2
v -16.9 0.3 -1.2
v -16.8 0.2 -1.2
v -16.5 0.2 -1.2
v -16.5 0.3 -1.2
v -16.5 0.2 -1.4
v -16.5 0.3 -1.4
v -16.4 0.2 -1.4
v -16.4 0.3 -1.4
v -16.4 0.4 -1.4
v -16.1 0.3 -1.4
v -16.1 0.4 -1.4
v -16.4 0.2 -1.5
v -16.4 0.3 -1.5
v -16.1 0.2 -1.5
v -16.1 0.3 -1.5
v -16.1 0.4 -1.5
v -16 0.3 -1.5
v -16 0.4 -1.5
v -16 0.3 -1.6
v -16 0.4 -1.6
v -15.7 0.3 -1.6
v -15.7 0.4 -1.6
v -16.1 0.2 -1.7
v -16.1 0.3 -1.7
v -16 0.2 -1.7
v -16 0.3 -1.7
v -15.7 0.3 -1.7
v -15.7 0.4 -1.7
v -15.6 0.3 -1.7
v -15.6 0.4 -1.7
v -16 0.2 -1.8
v -16 0.3 -1.8
v -15.9 0.2 -1.8
v -15.7 0.2 -1.8
v -15.7 0.3 -1.8
v -14.2 0.3 -1.8
v -14.2 0.4 -1.8
v -12.9 0.3 -1.8
v -12.9 0.4 -1.8
v -15.6 0.3 -1.9
v -15.6 0.4 -1.9
v -15.4 0.3 -1.9
v -15.4 0.4 -1.9
v -14.1 0.2 -1.9
v -14.1 0.3 -1.9
v -13 0.2 -1.9
v -12.9 0.2 -1.9
v -12.9 0.3 -1.9
v -15.7 0.2 -2
v -15.7 0.3 -2
v -15.5 0.2 -2
v -15.5 0.3 -2
v -15.4 0.3 -2
v -15.4 0.4 -2
v -14.2 0.3 -2
v -14.2 0.4 -2
v -15.5 0.2 -2.1
v -15.5 0.3 -2.1
v -15.4 0.2 -2.1
v -14.1 0.2 -2.1
v -14.1 0.3 -2.1
v -16.9 0 -4.5
v -16.9 0.2 -4.5
v -12.9 0 -4.5
v -12.9 0.2 -4.5
v -16.9 0 -0.5
v -12.9 0 -0.5
v -16.9 0 -4.5
v -12.9 0 -4.5
v -16.9 0.2 -1.2
v -16.8 0.2 -1.2
v -16.5 0.2 -1.2
v -16.8 0.2 -1.3
v -16.6 0.2 -1.3
v -16.6 0.2 -1.4
v -16.5 0.2 -1.4
v -16.4 0.2 -1.4
v -16.5 0.2 -1.5
v -16.4 0.2 -1.5
v -16.1 0.2 -1.5
v -16.4 0.2 -1.6
v -16.1 0.2 -1.6
v -16.1 0.2 -1.7
v -16 0.2 -1.7
v -16.1 0.2 -1.8
v -16 0.2 -1.8
v -15.9 0.2 -1.8
v -15.7 0.2 -1.8
v -15.9 0.2 -1.9
v -15.8 0.2 -1.9
v -14.1 0.2 -1.9
v -13 0.2 -1.9
v -12.9 0.2 -1.9
v -15.8 0.2 -2
v -15.7 0.2 -2
v -15.5 0.2 -2
v -14 0.2 -2
v -13 0.2 -2
v -15.5 0.2 -2.1
v -15.4 0.2 -2.1
v -14.1 0.2 -2.1
v -13 0.2 -2.1
v -12.9 0.2 -2.1
v -15.4 0.2 -2.2
v -14 0.2 -2.2
v -13.6 0.2 -3.6
v -13.5 0.2 -3.6
v -13.6 0.2 -3.7
v -13.5 0.2 -3.7
v -16.9 0.2 -4.5
v -12.9 0.2 -4.5
v -16.9 0.3 -1.1
v -16.4 0.3 -1.1
v -16.9 0.3 -1.2
v -16.5 0.3 -1.2
v -16.5 0.3 -1.4
v -16.4 0.3 -1.4
v -16.1 0.3 -1.4
v -16.4 0.3 -1.5
v -16.1 0.3 -1.5
v -16 0.3 -1.5
v -16 0.3 -1.6
v -15.7 0.3 -1.6
v -16.1 0.3 -1.7
v -16 0.3 -1.7
v -15.7 0.3 -1.7
v -15.6 0.3 -1.7
v -16 0.3 -1.8
v -15.7 0.3 -1.8
v -14.2 0.3 -1.8
v -12.9 0.3 -1.8
v -15.6 0.3 -1.9
v -15.4 0.3 -1.9
v -14.1 0.3 -1.9
v -12.9 0.3 -1.9
v -15.7 0.3 -2
v -15.5 0.3 -2
v -15.4 0.3 -2
v -14.2 0.3 -2
v -15.5 0.3 -2.1
v -14.1 0.3 -2.1
v -16.9 0.4 -0.5
v -12.9 0.4 -0.5
v -16.9 0.4 -1.1
v -16.4 0.4 -1.1
v -16.4 0.4 -1.4
v -16.1 0.4 -1.4
v -16.1 0.4 -1.5
v -16 0.4 -1.5
v -16 0.4 -1.6
v -15.7 0.4 -1.6
v -15.7 0.4 -1.7
v -15.6 0.4 -1.7
v -14.2 0.4 -1.8
v -12.9 0.4 -1.8
v -15.6 0.4 -1.9
v -15.4 0.4 -1.9
v -15.4 0.4 -2
v -14.2 0.4 -2

# faces
f 3/5/1 2/5/1 1/5/1
f 4/5/1 2/5/1 3/5/1
f 5/1/1 4/1/1 3/1/1
f 6/5/1 2/5/1 4/5/1
f 6/1/1 4/1/1 5/1/1
f 7/5/1 2/5/1 6/5/1
f 8/2/1 6/2/1 5/2/1
f 9/2/1 6/2/1 8/2/1
f 10/2/1 6/2/1 9/2/1
f 11/4/1 9/4/1 8/4/1
f 12/4/1 9/4/1 11/4/1
f 15/2/1 14/2/1 13/2/1
f 16/2/1 14/2/1 15/2/1
f 20/2/1 18/2/1 17/2/1
f 21/2/1 18/2/1 20/2/1
f 22/4/1 20/4/1 19/4/1
f 23/4/1 20/4/1 22/4/1
f 28/2/1 25/2/1 24/2/1
f 28/2/1 26/2/1 25/2/1
f 29/2/1 26/2/1 28/2/1
f 30/4/1 28/4/1 27/4/1
f 31/4/1 28/4/1 30/4/1
f 36/2/1 33/2/1 32/2/1
f 37/2/1 33/2/1 36/2/1
f 38/4/1 35/4/1 34/4/1
f 39/4/1 35/4/1 38/4/1
f 44/2/1 41/2/1 40/2/1
f 45/2/1 41/2/1 44/2/1
f 46/4/1 43/4/1 42/4/1
f 47/4/1 43/4/1 46/4/1
f 50/4/1 49/4/1 48/4/1
f 51/4/1 49/4/1 50/4/1
f 54/2/1 53/2/1 52/2/1
f 55/2/1 53/2/1 54/2/1
f 58/4/1 57/4/1 56/4/1
f 59/4/1 57/4/1 58/4/1
f 60/4/2 61/4/2 62/4/2
f 62/4/2 61/4/2 63/4/2
f 64/2/2 65/2/2 66/2/2
f 66/2/2 65/2/2 67/2/2
f 68/5/2 69/5/2 70/5/2
f 70/5/2 69/5/2 71/5/2
f 71/5/2 69/5/2 72/5/2
f 70/1/2 71/1/2 73/1/2
f 71/3/2 72/3/2 74/3/2
f 73/1/2 71/1/2 74/1/2
f 72/5/2 69/5/2 75/5/2
f 74/3/2 72/3/2 75/3/2
f 75/5/2 69/5/2 76/5/2
f 73/2/2 74/2/2 77/2/2
f 77/2/2 74/2/2 78/2/2
f 78/2/2 74/2/2 79/2/2
f 77/4/2 78/4/2 80/4/2
f 80/4/2 78/4/2 81/4/2
f 87/5/3 83/5/3 82/5/3
f 88/1/3 84/1/3 83/1/3
f 88/5/3 83/5/3 87/5/3
f 89/2/3 85/2/3 84/2/3
f 89/1/3 84/1/3 88/1/3
f 90/4/3 86/4/3 85/4/3
f 90/2/3 85/2/3 89/2/3
f 91/4/3 86/4/3 90/4/3
f 92/4/4 93/4/4 94/4/4
f 94/4/4 93/4/4 95/4/4
f 96/2/4 97/2/4 98/2/4
f 98/2/4 97/2/4 99/2/4
f 99/2/4 97/2/4 100/2/4
f 101/2/4 102/2/4 103/2/4
f 103/2/4 102/2/4 104/2/4
f 104/4/4 105/4/4 106/4/4
f 106/4/4 105/4/4 107/4/4
f 108/2/4 109/2/4 110/2/4
f 110/2/4 109/2/4 111/2/4
f 111/4/4 112/4/4 113/4/4
f 113/4/4 112/4/4 114/4/4
f 115/4/4 116/4/4 117/4/4
f 117/4/4 116/4/4 118/4/4
f 119/2/4 120/2/4 121/2/4
f 121/2/4 120/2/4 122/2/4
f 123/4/4 124/4/4 125/4/4
f 125/4/4 124/4/4 126/4/4
f 127/2/4 128/2/4 129/2/4
f 129/2/4 128/2/4 130/2/4
f 130/2/4 128/2/4 131/2/4
f 132/4/4 133/4/4 134/4/4
f 134/4/4 133/4/4 135/4/4
f 136/4/4 137/4/4 138/4/4
f 138/4/4 137/4/4 139/4/4
f 140/2/4 141/2/4 142/2/4
f 142/2/4 141/2/4 143/2/4
f 143/2/4 141/2/4 144/2/4
f 145/2/4 146/2/4 147/2/4
f 147/2/4 146/2/4 148/2/4
f 149/4/4 150/4/4 151/4/4
f 151/4/4 150/4/4 152/4/4
f 153/2/4 154/2/4 155/2/4
f 155/2/4 154/2/4 156/2/4
f 156/2/4 154/2/4 157/2/4
f 158/5/4 159/5/4 160/5/4
f 160/5/4 159/5/4 161/5/4
f 164/5/5 163/5/5 162/5/5
f 165/5/5 163/5/5 164/5/5
f 166/5/6 167/5/6 169/5/6
f 167/1/6 168/1/6 169/1/6
f 169/1/6 168/1/6 170/1/6
f 169/5/6 170/5/6 171/5/6
f 170/1/6 168/1/6 171/1/6
f 171/1/6 168/1/6 172/1/6
f 171/5/6 172/5/6 174/5/6
f 172/1/6 173/1/6 174/1/6
f 174/1/6 173/1/6 175/1/6
f 174/5/6 175/5/6 177/5/6
f 175/1/6 176/1/6 177/1/6
f 177/1/6 176/1/6 178/1/6
f 177/5/6 178/5/6 179/5/6
f 177/5/6 179/5/6 181/5/6
f 179/1/6 180/1/6 181/1/6
f 181/1/6 180/1/6 182/1/6
f 181/5/6 182/5/6 185/5/6
f 183/1/6 184/1/6 185/1/6
f 182/5/6 183/5/6 185/5/6
f 185/1/6 184/1/6 186/1/6
f 185/5/6 186/5/6 190/5/6
f 186/1/6 184/1/6 190/1/6
f 190/1/6 184/1/6 191/1/6
f 187/1/6 188/1/6 193/1/6
f 188/3/6 189/3/6 194/3/6
f 193/1/6 188/1/6 194/1/6
f 191/5/6 192/5/6 195/5/6
f 190/5/6 191/5/6 195/5/6
f 187/1/6 193/1/6 197/1/6
f 194/3/6 189/3/6 198/3/6
f 193/5/6 194/5/6 198/5/6
f 198/3/6 189/3/6 199/3/6
f 195/5/6 196/5/6 200/5/6
f 196/1/6 197/1/6 200/1/6
f 198/5/6 199/5/6 201/5/6
f 200/1/6 197/1/6 201/1/6
f 197/1/6 193/1/6 201/1/6
f 193/5/6 198/5/6 201/5/6
f 200/5/6 201/5/6 202/5/6
f 201/5/6 199/5/6 202/5/6
f 202/5/6 199/5/6 203/5/6
f 200/5/6 202/5/6 204/5/6
f 202/3/6 203/3/6 204/3/6
f 203/5/6 199/5/6 205/5/6
f 204/3/6 203/3/6 205/3/6
f 166/5/6 169/5/6 206/5/6
f 169/5/6 171/5/6 206/5/6
f 204/5/6 205/5/6 206/5/6
f 200/5/6 204/5/6 206/5/6
f 190/5/6 195/5/6 206/5/6
f 171/5/6 174/5/6 206/5/6
f 185/5/6 190/5/6 206/5/6
f 195/5/6 200/5/6 206/5/6
f 174/5/6 177/5/6 206/5/6
f 181/5/6 185/5/6 206/5/6
f 177/5/6 181/5/6 206/5/6
f 205/5/6 199/5/6 207/5/6
f 206/5/6 205/5/6 207/5/6
f 208/2/6 209/2/6 210/2/6
f 210/2/6 209/2/6 211/2/6
f 211/2/6 209/2/6 212/2/6
f 212/2/6 209/2/6 213/2/6
f 213/2/6 214/2/6 215/2/6
f 215/2/6 214/2/6 216/2/6
f 216/2/6 217/2/6 218/2/6
f 216/2/6 218/2/6 220/2/6
f 218/2/6 219/2/6 220/2/6
f 220/2/6 219/2/6 221/2/6
f 221/2/6 219/2/6 222/2/6
f 222/2/6 223/2/6 224/2/6
f 221/2/6 222/2/6 224/2/6
f 224/2/6 223/2/6 225/2/6
f 225/2/6 223/2/6 228/2/6
f 226/2/6 227/2/6 230/2/6
f 230/2/6 227/2/6 231/2/6
f 228/2/6 229/2/6 232/2/6
f 225/2/6 228/2/6 232/2/6
f 232/2/6 229/2/6 233/2/6
f 233/2/6 229/2/6 234/2/6
f 226/2/6 230/2/6 235/2/6
f 233/2/6 234/2/6 236/2/6
f 234/2/6 235/2/6 236/2/6
f 235/2/6 230/2/6 237/2/6
f 236/2/6 235/2/6 237/2/6
f 238/4/6 239/4/6 240/4/6
f 240/4/6 239/4/6 241/4/6
f 241/4/6 239/4/6 242/4/6
f 242/4/6 239/4/6 243/4/6
f 243/4/6 239/4/6 244/4/6
f 244/4/6 239/4/6 245/4/6
f 245/4/6 239/4/6 246/4/6
f 246/4/6 239/4/6 247/4/6
f 247/4/6 239/4/6 248/4/6
f 248/4/6 239/4/6 249/4/6
f 249/4/6 239/4/6 250/4/6
f 250/4/6 239/4/6 251/4/6
f 249/4/6 250/4/6 252/4/6
f 252/4/6 250/4/6 253/4/6
f 253/4/6 250/4/6 254/4/6
f 254/4/6 250/4/6 255/4/6
