# MagicaVoxel @ Ephtracy

# group
o 

# material
mtllib river3-0.mtl
usemtl palette

# normals
vn -1 0 0
vn 1 0 0
vn 0 0 1
vn 0 0 -1
vn 0 -1 0
vn 0 1 0

# texcoords
vt 0.654297 0.5
vt 0.685547 0.5
vt 0.716797 0.5
vt 0.814453 0.5
vt 0.818359 0.5
vt 0.865234 0.5
vt 0.880859 0.5

# verts
v 14.5 0 -2.3
v 14.5 0 -6.3
v 14.5 0.1 -6
v 14.5 0.1 -6.1
v 14.5 0.2 -2.3
v 14.5 0.2 -6
v 14.5 0.2 -6.1
v 14.5 0.2 -6.3
v 14.5 0.3 -6.1
v 14.5 0.3 -6.2
v 14.5 0.3 -6.3
v 14.5 0.4 -6.2
v 14.5 0.4 -6.3
v 15.2 0.2 -5.9
v 15.2 0.2 -6.1
v 15.2 0.3 -5.9
v 15.2 0.3 -6.1
v 15.3 0.3 -6
v 15.3 0.3 -6.2
v 15.3 0.4 -6
v 15.3 0.4 -6.2
v 15.7 0.2 -5.7
v 15.7 0.2 -5.9
v 15.7 0.3 -5.7
v 15.7 0.3 -5.9
v 15.8 0.2 -5.6
v 15.8 0.2 -5.7
v 15.8 0.3 -5.6
v 15.8 0.3 -5.7
v 15.8 0.3 -5.8
v 15.8 0.3 -6
v 15.8 0.4 -5.8
v 15.8 0.4 -6
v 15.9 0.2 -5.5
v 15.9 0.2 -5.6
v 15.9 0.3 -5.5
v 15.9 0.3 -5.6
v 15.9 0.3 -5.7
v 15.9 0.3 -5.8
v 15.9 0.4 -5.7
v 15.9 0.4 -5.8
v 16 0.2 -5.4
v 16 0.2 -5.5
v 16 0.3 -5.4
v 16 0.3 -5.5
v 16 0.3 -5.6
v 16 0.3 -5.7
v 16 0.4 -5.6
v 16 0.4 -5.7
v 16.1 0.2 -5.3
v 16.1 0.2 -5.4
v 16.1 0.3 -5.3
v 16.1 0.3 -5.4
v 16.1 0.3 -5.5
v 16.1 0.3 -5.6
v 16.1 0.4 -5.5
v 16.1 0.4 -5.6
v 16.2 0.2 -4.9
v 16.2 0.2 -5.3
v 16.2 0.3 -4.9
v 16.2 0.3 -5.3
v 16.2 0.3 -5.4
v 16.2 0.3 -5.5
v 16.2 0.4 -5.4
v 16.2 0.4 -5.5
v 16.3 0.3 -5
v 16.3 0.3 -5.4
v 16.3 0.4 -5
v 16.3 0.4 -5.4
v 18.5 0 -2.3
v 18.5 0 -6.3
v 18.5 0.1 -3.7
v 18.5 0.1 -3.9
v 18.5 0.1 -4.8
v 18.5 0.1 -4.9
v 18.5 0.1 -6.2
v 18.5 0.1 -6.3
v 18.5 0.2 -2.3
v 18.5 0.2 -3.7
v 18.5 0.2 -3.9
v 18.5 0.2 -4.8
v 18.5 0.2 -4.9
v 18.5 0.2 -6.2
v 18.5 0.2 -6.3
v 18.5 0.3 -4.9
v 18.5 0.3 -5
v 18.5 0.3 -6.3
v 18.5 0.4 -5
v 18.5 0.4 -6.3
v 14.5 0 -2.3
v 14.5 0.2 -2.3
v 18.5 0 -2.3
v 18.5 0.2 -2.3
v 16.2 0.2 -4.9
v 16.2 0.3 -4.9
v 18.5 0.2 -4.9
v 18.5 0.3 -4.9
v 16.3 0.3 -5
v 16.3 0.4 -5
v 18.5 0.3 -5
v 18.5 0.4 -5
v 16.1 0.2 -5.3
v 16.1 0.3 -5.3
v 16.2 0.2 -5.3
v 16.2 0.3 -5.3
v 16 0.2 -5.4
v 16 0.3 -5.4
v 16.1 0.2 -5.4
v 16.1 0.3 -5.4
v 16.2 0.3 -5.4
v 16.2 0.4 -5.4
v 16.3 0.3 -5.4
v 16.3 0.4 -5.4
v 15.9 0.2 -5.5
v 15.9 0.3 -5.5
v 16 0.2 -5.5
v 16 0.3 -5.5
v 16.1 0.3 -5.5
v 16.1 0.4 -5.5
v 16.2 0.3 -5.5
v 16.2 0.4 -5.5
v 15.8 0.2 -5.6
v 15.8 0.3 -5.6
v 15.9 0.2 -5.6
v 15.9 0.3 -5.6
v 16 0.3 -5.6
v 16 0.4 -5.6
v 16.1 0.3 -5.6
v 16.1 0.4 -5.6
v 15.7 0.2 -5.7
v 15.7 0.3 -5.7
v 15.8 0.2 -5.7
v 15.8 0.3 -5.7
v 15.9 0.3 -5.7
v 15.9 0.4 -5.7
v 16 0.3 -5.7
v 16 0.4 -5.7
v 15.8 0.3 -5.8
v 15.8 0.4 -5.8
v 15.9 0.3 -5.8
v 15.9 0.4 -5.8
v 15.2 0.2 -5.9
v 15.2 0.3 -5.9
v 15.7 0.2 -5.9
v 15.7 0.3 -5.9
v 15.3 0.3 -6
v 15.3 0.4 -6
v 15.8 0.3 -6
v 15.8 0.4 -6
v 14.5 0.2 -6.1
v 14.5 0.3 -6.1
v 15.2 0.2 -6.1
v 15.2 0.3 -6.1
v 14.5 0.3 -6.2
v 14.5 0.4 -6.2
v 15.3 0.3 -6.2
v 15.3 0.4 -6.2
v 14.5 0 -6.3
v 14.5 0.2 -6.3
v 14.5 0.3 -6.3
v 14.5 0.4 -6.3
v 16.3 0.1 -6.3
v 16.3 0.2 -6.3
v 18.5 0 -6.3
v 18.5 0.1 -6.3
v 18.5 0.2 -6.3
v 18.5 0.3 -6.3
v 18.5 0.4 -6.3
v 14.5 0 -2.3
v 18.5 0 -2.3
v 14.5 0 -6.3
v 18.5 0 -6.3
v 14.5 0.2 -2.3
v 18.5 0.2 -2.3
v 18.4 0.2 -3.7
v 18.5 0.2 -3.7
v 18.4 0.2 -3.9
v 18.5 0.2 -3.9
v 16.1 0.2 -4.8
v 18.5 0.2 -4.8
v 16.2 0.2 -4.9
v 18.5 0.2 -4.9
v 16 0.2 -5.2
v 16.1 0.2 -5.2
v 15.9 0.2 -5.3
v 16 0.2 -5.3
v 16.1 0.2 -5.3
v 16.2 0.2 -5.3
v 15.8 0.2 -5.4
v 15.9 0.2 -5.4
v 16 0.2 -5.4
v 16.1 0.2 -5.4
v 15.7 0.2 -5.5
v 15.8 0.2 -5.5
v 15.9 0.2 -5.5
v 16 0.2 -5.5
v 15.6 0.2 -5.6
v 15.7 0.2 -5.6
v 15.8 0.2 -5.6
v 15.9 0.2 -5.6
v 15.7 0.2 -5.7
v 15.8 0.2 -5.7
v 15.1 0.2 -5.8
v 15.6 0.2 -5.8
v 15.2 0.2 -5.9
v 15.7 0.2 -5.9
v 14.5 0.2 -6
v 15.1 0.2 -6
v 14.5 0.2 -6.1
v 15.2 0.2 -6.1
v 16.2 0.3 -4.9
v 18.5 0.3 -4.9
v 16.3 0.3 -5
v 18.5 0.3 -5
v 16.1 0.3 -5.3
v 16.2 0.3 -5.3
v 16 0.3 -5.4
v 16.1 0.3 -5.4
v 16.2 0.3 -5.4
v 16.3 0.3 -5.4
v 15.9 0.3 -5.5
v 16 0.3 -5.5
v 16.1 0.3 -5.5
v 16.2 0.3 -5.5
v 15.8 0.3 -5.6
v 15.9 0.3 -5.6
v 16 0.3 -5.6
v 16.1 0.3 -5.6
v 15.7 0.3 -5.7
v 15.8 0.3 -5.7
v 15.9 0.3 -5.7
v 16 0.3 -5.7
v 15.8 0.3 -5.8
v 15.9 0.3 -5.8
v 15.2 0.3 -5.9
v 15.7 0.3 -5.9
v 15.3 0.3 -6
v 15.8 0.3 -6
v 14.5 0.3 -6.1
v 15.2 0.3 -6.1
v 14.5 0.3 -6.2
v 15.3 0.3 -6.2
v 16.3 0.4 -5
v 18.5 0.4 -5
v 16.2 0.4 -5.4
v 16.3 0.4 -5.4
v 16.1 0.4 -5.5
v 16.2 0.4 -5.5
v 16 0.4 -5.6
v 16.1 0.4 -5.6
v 15.9 0.4 -5.7
v 16 0.4 -5.7
v 15.8 0.4 -5.8
v 15.9 0.4 -5.8
v 15.3 0.4 -6
v 15.8 0.4 -6
v 14.5 0.4 -6.2
v 15.3 0.4 -6.2
v 14.5 0.4 -6.3
v 18.5 0.4 -6.3

# faces
f 3/7/1 2/7/1 1/7/1
f 4/7/1 2/7/1 3/7/1
f 5/7/1 3/7/1 1/7/1
f 6/1/1 4/1/1 3/1/1
f 6/7/1 3/7/1 5/7/1
f 7/7/1 2/7/1 4/7/1
f 7/1/1 4/1/1 6/1/1
f 8/7/1 2/7/1 7/7/1
f 9/4/1 8/4/1 7/4/1
f 10/4/1 8/4/1 9/4/1
f 11/4/1 8/4/1 10/4/1
f 12/6/1 11/6/1 10/6/1
f 13/6/1 11/6/1 12/6/1
f 16/4/1 15/4/1 14/4/1
f 17/4/1 15/4/1 16/4/1
f 20/6/1 19/6/1 18/6/1
f 21/6/1 19/6/1 20/6/1
f 24/4/1 23/4/1 22/4/1
f 25/4/1 23/4/1 24/4/1
f 28/4/1 27/4/1 26/4/1
f 29/4/1 27/4/1 28/4/1
f 32/6/1 31/6/1 30/6/1
f 33/6/1 31/6/1 32/6/1
f 36/4/1 35/4/1 34/4/1
f 37/4/1 35/4/1 36/4/1
f 40/6/1 39/6/1 38/6/1
f 41/6/1 39/6/1 40/6/1
f 44/4/1 43/4/1 42/4/1
f 45/4/1 43/4/1 44/4/1
f 48/6/1 47/6/1 46/6/1
f 49/6/1 47/6/1 48/6/1
f 52/4/1 51/4/1 50/4/1
f 53/4/1 51/4/1 52/4/1
f 56/6/1 55/6/1 54/6/1
f 57/6/1 55/6/1 56/6/1
f 60/4/1 59/4/1 58/4/1
f 61/4/1 59/4/1 60/4/1
f 64/6/1 63/6/1 62/6/1
f 65/6/1 63/6/1 64/6/1
f 68/6/1 67/6/1 66/6/1
f 69/6/1 67/6/1 68/6/1
f 70/7/2 71/7/2 72/7/2
f 72/7/2 71/7/2 73/7/2
f 73/7/2 71/7/2 74/7/2
f 74/7/2 71/7/2 75/7/2
f 75/7/2 71/7/2 76/7/2
f 76/7/2 71/7/2 77/7/2
f 70/7/2 72/7/2 78/7/2
f 72/5/2 73/5/2 79/5/2
f 78/7/2 72/7/2 79/7/2
f 73/7/2 74/7/2 80/7/2
f 79/5/2 73/5/2 80/5/2
f 74/1/2 75/1/2 81/1/2
f 80/7/2 74/7/2 81/7/2
f 75/7/2 76/7/2 82/7/2
f 81/1/2 75/1/2 82/1/2
f 76/2/2 77/2/2 83/2/2
f 82/7/2 76/7/2 83/7/2
f 83/2/2 77/2/2 84/2/2
f 83/4/2 84/4/2 85/4/2
f 82/4/2 83/4/2 85/4/2
f 85/4/2 84/4/2 86/4/2
f 86/4/2 84/4/2 87/4/2
f 86/6/2 87/6/2 88/6/2
f 88/6/2 87/6/2 89/6/2
f 92/7/3 91/7/3 90/7/3
f 93/7/3 91/7/3 92/7/3
f 96/4/3 95/4/3 94/4/3
f 97/4/3 95/4/3 96/4/3
f 100/6/3 99/6/3 98/6/3
f 101/6/3 99/6/3 100/6/3
f 104/4/3 103/4/3 102/4/3
f 105/4/3 103/4/3 104/4/3
f 108/4/3 107/4/3 106/4/3
f 109/4/3 107/4/3 108/4/3
f 112/6/3 111/6/3 110/6/3
f 113/6/3 111/6/3 112/6/3
f 116/4/3 115/4/3 114/4/3
f 117/4/3 115/4/3 116/4/3
f 120/6/3 119/6/3 118/6/3
f 121/6/3 119/6/3 120/6/3
f 124/4/3 123/4/3 122/4/3
f 125/4/3 123/4/3 124/4/3
f 128/6/3 127/6/3 126/6/3
f 129/6/3 127/6/3 128/6/3
f 132/4/3 131/4/3 130/4/3
f 133/4/3 131/4/3 132/4/3
f 136/6/3 135/6/3 134/6/3
f 137/6/3 135/6/3 136/6/3
f 140/6/3 139/6/3 138/6/3
f 141/6/3 139/6/3 140/6/3
f 144/4/3 143/4/3 142/4/3
f 145/4/3 143/4/3 144/4/3
f 148/6/3 147/6/3 146/6/3
f 149/6/3 147/6/3 148/6/3
f 152/4/3 151/4/3 150/4/3
f 153/4/3 151/4/3 152/4/3
f 156/6/3 155/6/3 154/6/3
f 157/6/3 155/6/3 156/6/3
f 158/7/4 159/7/4 162/7/4
f 159/4/4 160/4/4 163/4/4
f 162/7/4 159/7/4 163/7/4
f 158/7/4 162/7/4 164/7/4
f 162/2/4 163/2/4 165/2/4
f 164/7/4 162/7/4 165/7/4
f 163/4/4 160/4/4 166/4/4
f 165/2/4 163/2/4 166/2/4
f 160/6/4 161/6/4 167/6/4
f 166/4/4 160/4/4 167/4/4
f 167/6/4 161/6/4 168/6/4
f 171/7/5 170/7/5 169/7/5
f 172/7/5 170/7/5 171/7/5
f 173/7/6 174/7/6 175/7/6
f 175/7/6 174/7/6 176/7/6
f 173/7/6 175/7/6 177/7/6
f 175/5/6 176/5/6 177/5/6
f 177/5/6 176/5/6 178/5/6
f 173/7/6 177/7/6 179/7/6
f 177/7/6 178/7/6 179/7/6
f 179/7/6 178/7/6 180/7/6
f 179/1/6 180/1/6 181/1/6
f 181/1/6 180/1/6 182/1/6
f 173/7/6 179/7/6 183/7/6
f 179/1/6 181/1/6 184/1/6
f 183/7/6 179/7/6 184/7/6
f 173/7/6 183/7/6 185/7/6
f 183/1/6 184/1/6 186/1/6
f 185/7/6 183/7/6 186/7/6
f 184/1/6 181/1/6 187/1/6
f 186/1/6 184/1/6 187/1/6
f 187/1/6 181/1/6 188/1/6
f 173/7/6 185/7/6 189/7/6
f 185/1/6 186/1/6 190/1/6
f 189/7/6 185/7/6 190/7/6
f 186/1/6 187/1/6 190/1/6
f 190/1/6 187/1/6 191/1/6
f 191/1/6 187/1/6 192/1/6
f 173/7/6 189/7/6 193/7/6
f 189/1/6 190/1/6 194/1/6
f 193/7/6 189/7/6 194/7/6
f 190/1/6 191/1/6 194/1/6
f 194/1/6 191/1/6 195/1/6
f 195/1/6 191/1/6 196/1/6
f 173/7/6 193/7/6 197/7/6
f 193/1/6 194/1/6 198/1/6
f 197/7/6 193/7/6 198/7/6
f 194/1/6 195/1/6 198/1/6
f 198/1/6 195/1/6 199/1/6
f 199/1/6 195/1/6 200/1/6
f 197/1/6 198/1/6 201/1/6
f 198/1/6 199/1/6 201/1/6
f 201/1/6 199/1/6 202/1/6
f 173/7/6 197/7/6 203/7/6
f 197/1/6 201/1/6 204/1/6
f 203/7/6 197/7/6 204/7/6
f 203/1/6 204/1/6 205/1/6
f 204/1/6 201/1/6 206/1/6
f 205/1/6 204/1/6 206/1/6
f 173/7/6 203/7/6 207/7/6
f 203/1/6 205/1/6 208/1/6
f 207/7/6 203/7/6 208/7/6
f 207/1/6 208/1/6 209/1/6
f 208/1/6 205/1/6 210/1/6
f 209/1/6 208/1/6 210/1/6
f 211/4/6 212/4/6 213/4/6
f 213/4/6 212/4/6 214/4/6
f 211/4/6 213/4/6 216/4/6
f 215/4/6 216/4/6 218/4/6
f 216/4/6 213/4/6 219/4/6
f 218/4/6 216/4/6 219/4/6
f 219/4/6 213/4/6 220/4/6
f 217/4/6 218/4/6 222/4/6
f 218/4/6 219/4/6 222/4/6
f 222/4/6 219/4/6 223/4/6
f 223/4/6 219/4/6 224/4/6
f 221/4/6 222/4/6 226/4/6
f 222/4/6 223/4/6 226/4/6
f 226/4/6 223/4/6 227/4/6
f 227/4/6 223/4/6 228/4/6
f 225/4/6 226/4/6 230/4/6
f 226/4/6 227/4/6 230/4/6
f 230/4/6 227/4/6 231/4/6
f 231/4/6 227/4/6 232/4/6
f 229/4/6 230/4/6 233/4/6
f 230/4/6 231/4/6 233/4/6
f 233/4/6 231/4/6 234/4/6
f 229/4/6 233/4/6 236/4/6
f 235/4/6 236/4/6 237/4/6
f 236/4/6 233/4/6 238/4/6
f 237/4/6 236/4/6 238/4/6
f 235/4/6 237/4/6 240/4/6
f 239/4/6 240/4/6 241/4/6
f 240/4/6 237/4/6 242/4/6
f 241/4/6 240/4/6 242/4/6
f 243/6/6 244/6/6 246/6/6
f 245/6/6 246/6/6 248/6/6
f 247/6/6 248/6/6 250/6/6
f 249/6/6 250/6/6 252/6/6
f 251/6/6 252/6/6 254/6/6
f 253/6/6 254/6/6 256/6/6
f 255/6/6 256/6/6 258/6/6
f 257/6/6 258/6/6 259/6/6
f 246/6/6 244/6/6 260/6/6
f 259/6/6 258/6/6 260/6/6
f 248/6/6 246/6/6 260/6/6
f 258/6/6 256/6/6 260/6/6
f 250/6/6 248/6/6 260/6/6
f 256/6/6 254/6/6 260/6/6
f 252/6/6 250/6/6 260/6/6
f 254/6/6 252/6/6 260/6/6
