# MagicaVoxel @ Ephtracy

# group
o barco

# material
mtllib jangada-2-barco.mtl
usemtl palette

# normals
vn -1 0 0
vn 1 0 0
vn 0 0 1
vn 0 0 -1
vn 0 -1 0
vn 0 1 0

# texcoords
vt 0.208984 0.5
vt 0.396484 0.5
vt 0.443359 0.5
vt 0.958984 0.5

# verts
v 3.2 0 0.3
v 3.2 0 0.1
v 3.2 0.2 0.3
v 3.2 0.2 0.1
v 3.2 0.3 0.3
v 3.2 0.3 0.1
v 3.3 0 0.4
v 3.3 0 0.3
v 3.3 0 0.1
v 3.3 0 0
v 3.3 0.2 0.4
v 3.3 0.2 0.3
v 3.3 0.2 0.1
v 3.3 0.2 0
v 3.3 0.3 0.4
v 3.3 0.3 0.3
v 3.3 0.3 0.1
v 3.3 0.3 0
v 3.4 0 0.5
v 3.4 0 0.4
v 3.4 0 0
v 3.4 0 -0.1
v 3.4 0.2 0.5
v 3.4 0.2 0.4
v 3.4 0.2 0
v 3.4 0.2 -0.1
v 3.4 0.3 0.5
v 3.4 0.3 0.4
v 3.4 0.3 0
v 3.4 0.3 -0.1
v 3.5 0.5 0.2
v 3.5 0.5 0.1
v 3.5 0.6 0.2
v 3.5 0.6 0.1
v 3.6 0.6 0.2
v 3.6 0.6 0.1
v 3.6 0.7 0.2
v 3.6 0.7 0.1
v 3.7 0.7 0.2
v 3.7 0.7 0.1
v 3.7 0.8 0.2
v 3.7 0.8 0.1
v 3.8 0.8 0.2
v 3.8 0.8 0.1
v 3.8 0.9 0.2
v 3.8 0.9 0.1
v 3.9 0.9 0.2
v 3.9 0.9 0.1
v 3.9 1 0.2
v 3.9 1 0.1
v 4 0.2 0.2
v 4 0.2 0.1
v 4 0.5 0.2
v 4 0.5 0.1
v 4.4 0.2 0.4
v 4.4 0.2 0
v 4.4 0.3 0.4
v 4.4 0.3 0
v 3.5 0.2 0.4
v 3.5 0.2 0
v 3.5 0.3 0.4
v 3.5 0.3 0
v 4.1 0.2 0.2
v 4.1 0.2 0.1
v 4.1 1 0.2
v 4.1 1 0.1
v 4.5 0 0.5
v 4.5 0 -0.1
v 4.5 0.2 0.5
v 4.5 0.2 -0.1
v 4.5 0.3 0.5
v 4.5 0.3 -0.1
v 3.4 0 0.5
v 3.4 0.2 0.5
v 3.4 0.3 0.5
v 4.5 0 0.5
v 4.5 0.2 0.5
v 4.5 0.3 0.5
v 3.3 0 0.4
v 3.3 0.2 0.4
v 3.3 0.3 0.4
v 3.4 0 0.4
v 3.4 0.2 0.4
v 3.4 0.3 0.4
v 3.2 0 0.3
v 3.2 0.2 0.3
v 3.2 0.3 0.3
v 3.3 0 0.3
v 3.3 0.2 0.3
v 3.3 0.3 0.3
v 3.5 0.5 0.2
v 3.5 0.6 0.2
v 3.6 0.6 0.2
v 3.6 0.7 0.2
v 3.7 0.7 0.2
v 3.7 0.8 0.2
v 3.8 0.8 0.2
v 3.8 0.9 0.2
v 3.9 0.9 0.2
v 3.9 1 0.2
v 4 0.2 0.2
v 4 0.5 0.2
v 4 1 0.2
v 4.1 0.2 0.2
v 4.1 1 0.2
v 3.5 0.2 0
v 3.5 0.3 0
v 4.4 0.2 0
v 4.4 0.3 0
v 3.5 0.2 0.4
v 3.5 0.3 0.4
v 4.4 0.2 0.4
v 4.4 0.3 0.4
v 3.2 0 0.1
v 3.2 0.2 0.1
v 3.2 0.3 0.1
v 3.3 0 0.1
v 3.3 0.2 0.1
v 3.3 0.3 0.1
v 3.5 0.5 0.1
v 3.5 0.6 0.1
v 3.6 0.6 0.1
v 3.6 0.7 0.1
v 3.7 0.7 0.1
v 3.7 0.8 0.1
v 3.8 0.8 0.1
v 3.8 0.9 0.1
v 3.9 0.9 0.1
v 3.9 1 0.1
v 4 0.2 0.1
v 4 0.5 0.1
v 4 1 0.1
v 4.1 0.2 0.1
v 4.1 1 0.1
v 3.3 0 0
v 3.3 0.2 0
v 3.3 0.3 0
v 3.4 0 0
v 3.4 0.2 0
v 3.4 0.3 0
v 3.4 0 -0.1
v 3.4 0.2 -0.1
v 3.4 0.3 -0.1
v 4.5 0 -0.1
v 4.5 0.2 -0.1
v 4.5 0.3 -0.1
v 3.4 0 0.5
v 4.5 0 0.5
v 3.3 0 0.4
v 3.4 0 0.4
v 3.2 0 0.3
v 3.3 0 0.3
v 3.2 0 0.1
v 3.3 0 0.1
v 3.3 0 0
v 3.4 0 0
v 3.4 0 -0.1
v 4.5 0 -0.1
v 3.5 0.5 0.2
v 4 0.5 0.2
v 3.5 0.5 0.1
v 4 0.5 0.1
v 3.5 0.2 0.4
v 4.4 0.2 0.4
v 4 0.2 0.2
v 4.1 0.2 0.2
v 4 0.2 0.1
v 4.1 0.2 0.1
v 3.5 0.2 0
v 4.4 0.2 0
v 3.4 0.3 0.5
v 4.5 0.3 0.5
v 3.3 0.3 0.4
v 3.4 0.3 0.4
v 3.5 0.3 0.4
v 4.4 0.3 0.4
v 3.2 0.3 0.3
v 3.3 0.3 0.3
v 3.2 0.3 0.1
v 3.3 0.3 0.1
v 3.3 0.3 0
v 3.4 0.3 0
v 3.5 0.3 0
v 4.4 0.3 0
v 3.4 0.3 -0.1
v 4.5 0.3 -0.1
v 3.5 0.6 0.2
v 3.6 0.6 0.2
v 3.5 0.6 0.1
v 3.6 0.6 0.1
v 3.6 0.7 0.2
v 3.7 0.7 0.2
v 3.6 0.7 0.1
v 3.7 0.7 0.1
v 3.7 0.8 0.2
v 3.8 0.8 0.2
v 3.7 0.8 0.1
v 3.8 0.8 0.1
v 3.8 0.9 0.2
v 3.9 0.9 0.2
v 3.8 0.9 0.1
v 3.9 0.9 0.1
v 3.9 1 0.2
v 4 1 0.2
v 4.1 1 0.2
v 3.9 1 0.1
v 4 1 0.1
v 4.1 1 0.1

# faces
f 3/1/1 2/1/1 1/1/1
f 4/1/1 2/1/1 3/1/1
f 5/3/1 4/3/1 3/3/1
f 6/3/1 4/3/1 5/3/1
f 11/1/1 8/1/1 7/1/1
f 12/1/1 8/1/1 11/1/1
f 13/1/1 10/1/1 9/1/1
f 14/1/1 10/1/1 13/1/1
f 15/3/1 12/3/1 11/3/1
f 16/3/1 12/3/1 15/3/1
f 17/3/1 14/3/1 13/3/1
f 18/3/1 14/3/1 17/3/1
f 23/1/1 20/1/1 19/1/1
f 24/1/1 20/1/1 23/1/1
f 25/1/1 22/1/1 21/1/1
f 26/1/1 22/1/1 25/1/1
f 27/3/1 24/3/1 23/3/1
f 28/3/1 24/3/1 27/3/1
f 29/3/1 26/3/1 25/3/1
f 30/3/1 26/3/1 29/3/1
f 33/4/1 32/4/1 31/4/1
f 34/4/1 32/4/1 33/4/1
f 37/4/1 36/4/1 35/4/1
f 38/4/1 36/4/1 37/4/1
f 41/4/1 40/4/1 39/4/1
f 42/4/1 40/4/1 41/4/1
f 45/4/1 44/4/1 43/4/1
f 46/4/1 44/4/1 45/4/1
f 49/4/1 48/4/1 47/4/1
f 50/4/1 48/4/1 49/4/1
f 53/2/1 52/2/1 51/2/1
f 54/2/1 52/2/1 53/2/1
f 57/3/1 56/3/1 55/3/1
f 58/3/1 56/3/1 57/3/1
f 59/3/2 60/3/2 61/3/2
f 61/3/2 60/3/2 62/3/2
f 63/2/2 64/2/2 65/2/2
f 65/2/2 64/2/2 66/2/2
f 67/1/2 68/1/2 69/1/2
f 69/1/2 68/1/2 70/1/2
f 69/3/2 70/3/2 71/3/2
f 71/3/2 70/3/2 72/3/2
f 76/1/3 74/1/3 73/1/3
f 77/3/3 75/3/3 74/3/3
f 77/1/3 74/1/3 76/1/3
f 78/3/3 75/3/3 77/3/3
f 82/1/3 80/1/3 79/1/3
f 83/3/3 81/3/3 80/3/3
f 83/1/3 80/1/3 82/1/3
f 84/3/3 81/3/3 83/3/3
f 88/1/3 86/1/3 85/1/3
f 89/3/3 87/3/3 86/3/3
f 89/1/3 86/1/3 88/1/3
f 90/3/3 87/3/3 89/3/3
f 93/4/3 92/4/3 91/4/3
f 95/4/3 94/4/3 93/4/3
f 97/4/3 96/4/3 95/4/3
f 99/4/3 98/4/3 97/4/3
f 102/4/3 93/4/3 91/4/3
f 102/4/3 100/4/3 99/4/3
f 102/4/3 99/4/3 97/4/3
f 102/4/3 97/4/3 95/4/3
f 102/4/3 95/4/3 93/4/3
f 103/4/3 100/4/3 102/4/3
f 104/2/3 102/2/3 101/2/3
f 104/2/3 103/2/3 102/2/3
f 105/2/3 103/2/3 104/2/3
f 108/3/3 107/3/3 106/3/3
f 109/3/3 107/3/3 108/3/3
f 110/3/4 111/3/4 112/3/4
f 112/3/4 111/3/4 113/3/4
f 114/1/4 115/1/4 117/1/4
f 115/3/4 116/3/4 118/3/4
f 117/1/4 115/1/4 118/1/4
f 118/3/4 116/3/4 119/3/4
f 120/4/4 121/4/4 122/4/4
f 122/4/4 123/4/4 124/4/4
f 124/4/4 125/4/4 126/4/4
f 126/4/4 127/4/4 128/4/4
f 120/4/4 122/4/4 131/4/4
f 128/4/4 129/4/4 131/4/4
f 126/4/4 128/4/4 131/4/4
f 124/4/4 126/4/4 131/4/4
f 122/4/4 124/4/4 131/4/4
f 131/4/4 129/4/4 132/4/4
f 130/2/4 131/2/4 133/2/4
f 131/2/4 132/2/4 133/2/4
f 133/2/4 132/2/4 134/2/4
f 135/1/4 136/1/4 138/1/4
f 136/3/4 137/3/4 139/3/4
f 138/1/4 136/1/4 139/1/4
f 139/3/4 137/3/4 140/3/4
f 141/1/4 142/1/4 144/1/4
f 142/3/4 143/3/4 145/3/4
f 144/1/4 142/1/4 145/1/4
f 145/3/4 143/3/4 146/3/4
f 150/1/5 148/1/5 147/1/5
f 152/1/5 150/1/5 149/1/5
f 153/1/5 152/1/5 151/1/5
f 154/1/5 150/1/5 152/1/5
f 154/1/5 152/1/5 153/1/5
f 155/1/5 150/1/5 154/1/5
f 156/1/5 148/1/5 150/1/5
f 156/1/5 150/1/5 155/1/5
f 157/1/5 148/1/5 156/1/5
f 158/1/5 148/1/5 157/1/5
f 161/4/5 160/4/5 159/4/5
f 162/4/5 160/4/5 161/4/5
f 163/3/6 164/3/6 165/3/6
f 165/3/6 164/3/6 166/3/6
f 163/3/6 165/3/6 167/3/6
f 166/3/6 164/3/6 168/3/6
f 163/3/6 167/3/6 169/3/6
f 167/3/6 168/3/6 169/3/6
f 168/3/6 164/3/6 170/3/6
f 169/3/6 168/3/6 170/3/6
f 171/3/6 172/3/6 174/3/6
f 174/3/6 172/3/6 175/3/6
f 175/3/6 172/3/6 176/3/6
f 173/3/6 174/3/6 178/3/6
f 174/3/6 175/3/6 178/3/6
f 177/3/6 178/3/6 179/3/6
f 178/3/6 175/3/6 180/3/6
f 179/3/6 178/3/6 180/3/6
f 180/3/6 175/3/6 181/3/6
f 181/3/6 175/3/6 182/3/6
f 182/3/6 175/3/6 183/3/6
f 176/3/6 172/3/6 184/3/6
f 182/3/6 183/3/6 185/3/6
f 183/3/6 184/3/6 185/3/6
f 184/3/6 172/3/6 186/3/6
f 185/3/6 184/3/6 186/3/6
f 187/4/6 188/4/6 189/4/6
f 189/4/6 188/4/6 190/4/6
f 191/4/6 192/4/6 193/4/6
f 193/4/6 192/4/6 194/4/6
f 195/4/6 196/4/6 197/4/6
f 197/4/6 196/4/6 198/4/6
f 199/4/6 200/4/6 201/4/6
f 201/4/6 200/4/6 202/4/6
f 203/4/6 204/4/6 206/4/6
f 204/2/6 205/2/6 207/2/6
f 206/4/6 204/4/6 207/4/6
f 207/2/6 205/2/6 208/2/6
